<svg width="27" height="24" viewBox="0 0 27 24" fill="none" xmlns="http://www.w3.org/2000/svg">
<g id="copy">
<path id="Vector" d="M16.8568 15H22.2139C22.8057 15 23.2854 14.5523 23.2854 14V4C23.2854 3.44772 22.8057 3 22.2139 3L11.4997 3C10.9079 3 10.4282 3.44771 10.4282 4L10.4282 9" stroke="#888888" stroke-width="1.5" stroke-linecap="round" stroke-linejoin="round"/>
<path id="Vector_2" d="M5.07094 21L15.7852 21C16.377 21 16.8567 20.5523 16.8567 20L16.8567 10C16.8567 9.44772 16.377 9 15.7852 9L5.07094 9C4.47921 9 3.99951 9.44771 3.99951 10L3.99951 20C3.99951 20.5523 4.47921 21 5.07094 21Z" stroke="#888888" stroke-width="1.5" stroke-linecap="round" stroke-linejoin="round"/>
</g>
</svg>
