<svg width="88" height="88" viewBox="0 0 88 88" fill="none" xmlns="http://www.w3.org/2000/svg">
<path d="M64.2817 29.5732L67.809 15.6684L44.5215 0L21.5233 15.6614L26.1441 31.0406L21.4457 32.4515L9.21289 54.0529L26.8496 88H62.4757L80.0559 54.0529L64.2817 29.5732ZM78.2005 53.3686L59.9007 46.6949L63.1247 34.0741L78.2005 53.3686ZM23.3928 16.8466L64.9589 18.8854L28.6062 30.3351L23.3928 16.8466ZM10.4122 54.0529L22.0806 36.2963L32.8954 85.8483L10.4122 54.0529ZM35.2517 85.8483L61.6714 32.4515L46.5039 85.8272L35.2517 85.8483ZM60.9448 85.8483H54.1159L78.5251 55.2028L60.9448 85.8483Z" fill="url(#paint0_linear_2_2177)"/>
<defs>
<linearGradient id="paint0_linear_2_2177" x1="-27.4361" y1="43.2099" x2="110.8" y2="44.9383" gradientUnits="userSpaceOnUse">
<stop stop-color="#C6A254"/>
<stop offset="0.84" stop-color="#E8D6AE"/>
</linearGradient>
</defs>
</svg>
