<svg width="16" height="16" viewBox="0 0 16 16" fill="none" xmlns="http://www.w3.org/2000/svg">
<g id="la:hourglass-end">
<path id="Vector" d="M2.75 1V2.16667H3.91667V4.5C3.91736 5.20531 4.10074 5.89841 4.44893 6.51178C4.79712 7.12515 5.29825 7.63787 5.9035 8C5.29825 8.36212 4.79712 8.87485 4.44893 9.48822C4.10074 10.1016 3.91736 10.7947 3.91667 11.5V13.8333H2.75V15H13.25V13.8333H12.0833V11.5C12.0826 10.7947 11.8993 10.1016 11.5511 9.48822C11.2029 8.87485 10.7017 8.36212 10.0965 8C10.7017 7.63787 11.2029 7.12515 11.5511 6.51178C11.8993 5.89841 12.0826 5.20531 12.0833 4.5V2.16667H13.25V1H2.75ZM5.08333 2.16667H10.9167V4.5C10.9167 6.11758 9.61758 7.41667 8 7.41667C6.38242 7.41667 5.08333 6.11758 5.08333 4.5V2.16667ZM8 8.58333C9.61758 8.58333 10.9167 9.88242 10.9167 11.5V13.8333H10.3333V12.6667C10.3333 11.3775 9.28917 10.3333 8 10.3333C6.71083 10.3333 5.66667 11.3775 5.66667 12.6667V13.8333H5.08333V11.5C5.08333 9.88242 6.38242 8.58333 8 8.58333Z" fill="#2D2E36"/>
</g>
</svg>
