<svg width="21" height="21" viewBox="0 0 21 21" fill="none" xmlns="http://www.w3.org/2000/svg">
<path d="M20.2619 18.9464H19.3057V19.9027H20.2619V18.9464Z" fill="url(#paint0_linear_3592_56397)"/>
<path d="M19.3062 1.80249H18.3563V2.75874H17.4062V3.70874H18.3563V4.66499H19.3062V3.70874H20.2625V2.75874H19.3062V1.80249Z" fill="url(#paint1_linear_3592_56397)"/>
<path d="M19.3069 15.1392H18.3569V16.0892H19.3069V15.1392Z" fill="url(#paint2_linear_3592_56397)"/>
<path d="M18.3563 16.0895H17.4062V17.0457H18.3563V16.0895Z" fill="url(#paint3_linear_3592_56397)"/>
<path d="M17.4069 15.1392H16.4507V16.0892H17.4069V15.1392Z" fill="url(#paint4_linear_3592_56397)"/>
<path d="M15.5005 20.8519V19.9019H16.4505V18.9456H15.5005V17.9956H14.5442V18.9456H13.5942V19.9019H14.5442V20.8519H15.5005Z" fill="url(#paint5_linear_3592_56397)"/>
<path d="M14.5442 1.80249H13.5942V2.75874H14.5442V1.80249Z" fill="url(#paint6_linear_3592_56397)"/>
<path d="M11.6878 0.852051H10.7378V1.80205H11.6878V0.852051Z" fill="url(#paint7_linear_3592_56397)"/>
<path d="M6.92559 1.80249H5.97559V2.75874H6.92559V1.80249Z" fill="url(#paint8_linear_3592_56397)"/>
<path d="M5.9749 17.9956H5.0249V18.9456H5.9749V17.9956Z" fill="url(#paint9_linear_3592_56397)"/>
<path d="M3.11836 16.09H2.16211V17.0462H3.11836V16.09Z" fill="url(#paint10_linear_3592_56397)"/>
<path d="M2.16338 19.9016H1.21338V20.8516H2.16338V19.9016Z" fill="url(#paint11_linear_3592_56397)"/>
<path d="M2.16338 17.0452H1.21338V17.9952H2.16338V17.0452Z" fill="url(#paint12_linear_3592_56397)"/>
<path d="M2.16338 15.1392H1.21338V16.0892H2.16338V15.1392Z" fill="url(#paint13_linear_3592_56397)"/>
<path d="M1.2127 3.70842H2.1627V2.75842H3.11895V1.80217H2.1627V0.852173H1.2127V1.80217H0.262695V2.75842H1.2127V3.70842Z" fill="url(#paint14_linear_3592_56397)"/>
<path d="M1.2127 16.0895H0.262695V17.0457H1.2127V16.0895Z" fill="url(#paint15_linear_3592_56397)"/>
<path d="M18.3563 14.1838H17.4062V15.1401H18.3563V14.1838Z" fill="url(#paint16_linear_3592_56397)"/>
<path d="M18.3563 10.3781H17.4062V11.3281H18.3563V10.3781Z" fill="url(#paint17_linear_3592_56397)"/>
<path d="M18.3563 6.56641H17.4062V7.52266H18.3563V6.56641Z" fill="url(#paint18_linear_3592_56397)"/>
<path d="M17.4069 11.3289H16.4507V12.2851H17.4069V11.3289Z" fill="url(#paint19_linear_3592_56397)"/>
<path d="M17.4069 5.61597H16.4507V6.56597H17.4069V5.61597Z" fill="url(#paint20_linear_3592_56397)"/>
<path d="M16.4505 12.2858H15.5005V13.2358H16.4505V12.2858Z" fill="url(#paint21_linear_3592_56397)"/>
<path d="M16.4505 4.66528H15.5005V5.61528H16.4505V4.66528Z" fill="url(#paint22_linear_3592_56397)"/>
<path d="M15.4997 13.2345H14.5435V14.1845H15.4997V13.2345Z" fill="url(#paint23_linear_3592_56397)"/>
<path d="M14.5442 14.1853H13.5942V15.1416H14.5442V14.1853Z" fill="url(#paint24_linear_3592_56397)"/>
<path d="M14.5442 10.3781H13.5942V11.3281H14.5442V10.3781Z" fill="url(#paint25_linear_3592_56397)"/>
<path d="M14.5442 6.56641H13.5942V7.52266H14.5442V6.56641Z" fill="url(#paint26_linear_3592_56397)"/>
<path d="M13.594 15.1406H12.644V16.0906H13.594V15.1406Z" fill="url(#paint27_linear_3592_56397)"/>
<path d="M13.594 11.3285H12.644V13.2347H13.594V11.3285Z" fill="url(#paint28_linear_3592_56397)"/>
<path d="M13.594 5.61597H12.644V6.56597H13.594V5.61597Z" fill="url(#paint29_linear_3592_56397)"/>
<path d="M12.6447 13.2345H11.6885V15.1407H12.6447V13.2345Z" fill="url(#paint30_linear_3592_56397)"/>
<path d="M11.6878 15.1406H10.7378V17.9969H11.6878V17.0469H12.644V16.0906H11.6878V15.1406Z" fill="url(#paint31_linear_3592_56397)"/>
<path d="M10.7383 17.9971H8.83203V18.9471H10.7383V17.9971Z" fill="url(#paint32_linear_3592_56397)"/>
<path d="M8.83252 15.1406H7.88252V16.0906H6.92627V17.0469H7.88252V17.9969H8.83252V15.1406Z" fill="url(#paint33_linear_3592_56397)"/>
<path d="M7.88252 13.2345H6.92627V15.1407H7.88252V13.2345Z" fill="url(#paint34_linear_3592_56397)"/>
<path d="M6.92559 15.1406H5.97559V16.0906H6.92559V15.1406Z" fill="url(#paint35_linear_3592_56397)"/>
<path d="M6.92559 11.3289H5.97559V13.2351H6.92559V11.3289Z" fill="url(#paint36_linear_3592_56397)"/>
<path d="M6.92559 5.61597H5.97559V6.56597H6.92559V5.61597Z" fill="url(#paint37_linear_3592_56397)"/>
<path d="M5.9749 14.1853H5.0249V15.1416H5.9749V14.1853Z" fill="url(#paint38_linear_3592_56397)"/>
<path d="M5.9749 10.3781H5.0249V11.3281H5.9749V10.3781Z" fill="url(#paint39_linear_3592_56397)"/>
<path d="M5.9749 6.56641H5.0249V7.52266H5.9749V6.56641Z" fill="url(#paint40_linear_3592_56397)"/>
<path d="M6.92412 4.66621V5.61621H7.88037V4.66621H11.6866V5.61621H12.6429V4.66621H15.4991V3.70996H4.06787V4.66621H6.92412Z" fill="url(#paint41_linear_3592_56397)"/>
<path d="M5.02412 13.2345H4.06787V14.1845H5.02412V13.2345Z" fill="url(#paint42_linear_3592_56397)"/>
<path d="M4.06914 12.2858H3.11914V13.2358H4.06914V12.2858Z" fill="url(#paint43_linear_3592_56397)"/>
<path d="M4.06914 4.66528H3.11914V5.61528H4.06914V4.66528Z" fill="url(#paint44_linear_3592_56397)"/>
<path d="M3.11836 11.3289H2.16211V12.2851H3.11836V11.3289Z" fill="url(#paint45_linear_3592_56397)"/>
<path d="M3.11836 5.61597H2.16211V6.56597H3.11836V5.61597Z" fill="url(#paint46_linear_3592_56397)"/>
<path d="M2.16338 10.3781H1.21338V11.3281H2.16338V10.3781Z" fill="url(#paint47_linear_3592_56397)"/>
<path d="M1.2127 9.42161H4.06895V10.3779H5.0252V9.42161H14.5439V10.3779H15.5002V9.42161H18.3564V10.3779H19.3064V7.52161H18.3564V8.47161H15.5002V7.52161H14.5439V8.47161H5.0252V7.52161H4.06895V8.47161H1.2127V7.52161H0.262695V10.3779H1.2127V9.42161Z" fill="url(#paint48_linear_3592_56397)"/>
<path d="M2.16338 6.56641H1.21338V7.52266H2.16338V6.56641Z" fill="url(#paint49_linear_3592_56397)"/>
<defs>
<linearGradient id="paint0_linear_3592_56397" x1="19.3308" y1="18.9464" x2="20.3477" y2="19.0283" gradientUnits="userSpaceOnUse">
<stop stop-color="#FF6B00"/>
<stop offset="1" stop-color="#F8E004"/>
</linearGradient>
<linearGradient id="paint1_linear_3592_56397" x1="17.4814" y1="1.80249" x2="20.5188" y2="2.04651" gradientUnits="userSpaceOnUse">
<stop stop-color="#FF6B00"/>
<stop offset="1" stop-color="#F8E004"/>
</linearGradient>
<linearGradient id="paint2_linear_3592_56397" x1="18.3819" y1="15.1392" x2="19.3921" y2="15.2205" gradientUnits="userSpaceOnUse">
<stop stop-color="#FF6B00"/>
<stop offset="1" stop-color="#F8E004"/>
</linearGradient>
<linearGradient id="paint3_linear_3592_56397" x1="17.4313" y1="16.0895" x2="18.4415" y2="16.1703" gradientUnits="userSpaceOnUse">
<stop stop-color="#FF6B00"/>
<stop offset="1" stop-color="#F8E004"/>
</linearGradient>
<linearGradient id="paint4_linear_3592_56397" x1="16.4758" y1="15.1392" x2="17.4926" y2="15.2216" gradientUnits="userSpaceOnUse">
<stop stop-color="#FF6B00"/>
<stop offset="1" stop-color="#F8E004"/>
</linearGradient>
<linearGradient id="paint5_linear_3592_56397" x1="13.6694" y1="17.9956" x2="16.7067" y2="18.2402" gradientUnits="userSpaceOnUse">
<stop stop-color="#FF6B00"/>
<stop offset="1" stop-color="#F8E004"/>
</linearGradient>
<linearGradient id="paint6_linear_3592_56397" x1="13.6192" y1="1.80249" x2="14.6295" y2="1.8833" gradientUnits="userSpaceOnUse">
<stop stop-color="#FF6B00"/>
<stop offset="1" stop-color="#F8E004"/>
</linearGradient>
<linearGradient id="paint7_linear_3592_56397" x1="10.7628" y1="0.852051" x2="11.773" y2="0.933389" gradientUnits="userSpaceOnUse">
<stop stop-color="#FF6B00"/>
<stop offset="1" stop-color="#F8E004"/>
</linearGradient>
<linearGradient id="paint8_linear_3592_56397" x1="6.00059" y1="1.80249" x2="7.01088" y2="1.8833" gradientUnits="userSpaceOnUse">
<stop stop-color="#FF6B00"/>
<stop offset="1" stop-color="#F8E004"/>
</linearGradient>
<linearGradient id="paint9_linear_3592_56397" x1="5.0499" y1="17.9956" x2="6.06012" y2="18.0769" gradientUnits="userSpaceOnUse">
<stop stop-color="#FF6B00"/>
<stop offset="1" stop-color="#F8E004"/>
</linearGradient>
<linearGradient id="paint10_linear_3592_56397" x1="2.18727" y1="16.09" x2="3.20413" y2="16.1718" gradientUnits="userSpaceOnUse">
<stop stop-color="#FF6B00"/>
<stop offset="1" stop-color="#F8E004"/>
</linearGradient>
<linearGradient id="paint11_linear_3592_56397" x1="1.23838" y1="19.9016" x2="2.24859" y2="19.9829" gradientUnits="userSpaceOnUse">
<stop stop-color="#FF6B00"/>
<stop offset="1" stop-color="#F8E004"/>
</linearGradient>
<linearGradient id="paint12_linear_3592_56397" x1="1.23838" y1="17.0452" x2="2.24859" y2="17.1265" gradientUnits="userSpaceOnUse">
<stop stop-color="#FF6B00"/>
<stop offset="1" stop-color="#F8E004"/>
</linearGradient>
<linearGradient id="paint13_linear_3592_56397" x1="1.23838" y1="15.1392" x2="2.24859" y2="15.2205" gradientUnits="userSpaceOnUse">
<stop stop-color="#FF6B00"/>
<stop offset="1" stop-color="#F8E004"/>
</linearGradient>
<linearGradient id="paint14_linear_3592_56397" x1="0.33786" y1="0.852173" x2="3.37515" y2="1.09672" gradientUnits="userSpaceOnUse">
<stop stop-color="#FF6B00"/>
<stop offset="1" stop-color="#F8E004"/>
</linearGradient>
<linearGradient id="paint15_linear_3592_56397" x1="0.287695" y1="16.0895" x2="1.29799" y2="16.1703" gradientUnits="userSpaceOnUse">
<stop stop-color="#FF6B00"/>
<stop offset="1" stop-color="#F8E004"/>
</linearGradient>
<linearGradient id="paint16_linear_3592_56397" x1="17.4313" y1="14.1838" x2="18.4415" y2="14.2647" gradientUnits="userSpaceOnUse">
<stop stop-color="#FF6B00"/>
<stop offset="1" stop-color="#F8E004"/>
</linearGradient>
<linearGradient id="paint17_linear_3592_56397" x1="17.4313" y1="10.3781" x2="18.4415" y2="10.4594" gradientUnits="userSpaceOnUse">
<stop stop-color="#FF6B00"/>
<stop offset="1" stop-color="#F8E004"/>
</linearGradient>
<linearGradient id="paint18_linear_3592_56397" x1="17.4313" y1="6.56641" x2="18.4415" y2="6.64722" gradientUnits="userSpaceOnUse">
<stop stop-color="#FF6B00"/>
<stop offset="1" stop-color="#F8E004"/>
</linearGradient>
<linearGradient id="paint19_linear_3592_56397" x1="16.4758" y1="11.3289" x2="17.4927" y2="11.4107" gradientUnits="userSpaceOnUse">
<stop stop-color="#FF6B00"/>
<stop offset="1" stop-color="#F8E004"/>
</linearGradient>
<linearGradient id="paint20_linear_3592_56397" x1="16.4758" y1="5.61597" x2="17.4926" y2="5.69837" gradientUnits="userSpaceOnUse">
<stop stop-color="#FF6B00"/>
<stop offset="1" stop-color="#F8E004"/>
</linearGradient>
<linearGradient id="paint21_linear_3592_56397" x1="15.5255" y1="12.2858" x2="16.5357" y2="12.3671" gradientUnits="userSpaceOnUse">
<stop stop-color="#FF6B00"/>
<stop offset="1" stop-color="#F8E004"/>
</linearGradient>
<linearGradient id="paint22_linear_3592_56397" x1="15.5255" y1="4.66528" x2="16.5357" y2="4.74662" gradientUnits="userSpaceOnUse">
<stop stop-color="#FF6B00"/>
<stop offset="1" stop-color="#F8E004"/>
</linearGradient>
<linearGradient id="paint23_linear_3592_56397" x1="14.5686" y1="13.2345" x2="15.5854" y2="13.3169" gradientUnits="userSpaceOnUse">
<stop stop-color="#FF6B00"/>
<stop offset="1" stop-color="#F8E004"/>
</linearGradient>
<linearGradient id="paint24_linear_3592_56397" x1="13.6192" y1="14.1853" x2="14.6295" y2="14.2661" gradientUnits="userSpaceOnUse">
<stop stop-color="#FF6B00"/>
<stop offset="1" stop-color="#F8E004"/>
</linearGradient>
<linearGradient id="paint25_linear_3592_56397" x1="13.6192" y1="10.3781" x2="14.6295" y2="10.4594" gradientUnits="userSpaceOnUse">
<stop stop-color="#FF6B00"/>
<stop offset="1" stop-color="#F8E004"/>
</linearGradient>
<linearGradient id="paint26_linear_3592_56397" x1="13.6192" y1="6.56641" x2="14.6295" y2="6.64722" gradientUnits="userSpaceOnUse">
<stop stop-color="#FF6B00"/>
<stop offset="1" stop-color="#F8E004"/>
</linearGradient>
<linearGradient id="paint27_linear_3592_56397" x1="12.669" y1="15.1406" x2="13.6793" y2="15.222" gradientUnits="userSpaceOnUse">
<stop stop-color="#FF6B00"/>
<stop offset="1" stop-color="#F8E004"/>
</linearGradient>
<linearGradient id="paint28_linear_3592_56397" x1="12.669" y1="11.3285" x2="13.6842" y2="11.3692" gradientUnits="userSpaceOnUse">
<stop stop-color="#FF6B00"/>
<stop offset="1" stop-color="#F8E004"/>
</linearGradient>
<linearGradient id="paint29_linear_3592_56397" x1="12.669" y1="5.61597" x2="13.6793" y2="5.69731" gradientUnits="userSpaceOnUse">
<stop stop-color="#FF6B00"/>
<stop offset="1" stop-color="#F8E004"/>
</linearGradient>
<linearGradient id="paint30_linear_3592_56397" x1="11.7136" y1="13.2345" x2="12.7354" y2="13.2758" gradientUnits="userSpaceOnUse">
<stop stop-color="#FF6B00"/>
<stop offset="1" stop-color="#F8E004"/>
</linearGradient>
<linearGradient id="paint31_linear_3592_56397" x1="10.788" y1="15.1406" x2="12.8223" y2="15.2499" gradientUnits="userSpaceOnUse">
<stop stop-color="#FF6B00"/>
<stop offset="1" stop-color="#F8E004"/>
</linearGradient>
<linearGradient id="paint32_linear_3592_56397" x1="8.8822" y1="17.9971" x2="10.8705" y2="18.3183" gradientUnits="userSpaceOnUse">
<stop stop-color="#FF6B00"/>
<stop offset="1" stop-color="#F8E004"/>
</linearGradient>
<linearGradient id="paint33_linear_3592_56397" x1="6.97643" y1="15.1406" x2="9.01078" y2="15.2499" gradientUnits="userSpaceOnUse">
<stop stop-color="#FF6B00"/>
<stop offset="1" stop-color="#F8E004"/>
</linearGradient>
<linearGradient id="paint34_linear_3592_56397" x1="6.95143" y1="13.2345" x2="7.97322" y2="13.2758" gradientUnits="userSpaceOnUse">
<stop stop-color="#FF6B00"/>
<stop offset="1" stop-color="#F8E004"/>
</linearGradient>
<linearGradient id="paint35_linear_3592_56397" x1="6.00059" y1="15.1406" x2="7.0108" y2="15.222" gradientUnits="userSpaceOnUse">
<stop stop-color="#FF6B00"/>
<stop offset="1" stop-color="#F8E004"/>
</linearGradient>
<linearGradient id="paint36_linear_3592_56397" x1="6.00059" y1="11.3289" x2="7.01571" y2="11.3696" gradientUnits="userSpaceOnUse">
<stop stop-color="#FF6B00"/>
<stop offset="1" stop-color="#F8E004"/>
</linearGradient>
<linearGradient id="paint37_linear_3592_56397" x1="6.00059" y1="5.61597" x2="7.0108" y2="5.69731" gradientUnits="userSpaceOnUse">
<stop stop-color="#FF6B00"/>
<stop offset="1" stop-color="#F8E004"/>
</linearGradient>
<linearGradient id="paint38_linear_3592_56397" x1="5.0499" y1="14.1853" x2="6.0602" y2="14.2661" gradientUnits="userSpaceOnUse">
<stop stop-color="#FF6B00"/>
<stop offset="1" stop-color="#F8E004"/>
</linearGradient>
<linearGradient id="paint39_linear_3592_56397" x1="5.0499" y1="10.3781" x2="6.06012" y2="10.4594" gradientUnits="userSpaceOnUse">
<stop stop-color="#FF6B00"/>
<stop offset="1" stop-color="#F8E004"/>
</linearGradient>
<linearGradient id="paint40_linear_3592_56397" x1="5.0499" y1="6.56641" x2="6.0602" y2="6.64722" gradientUnits="userSpaceOnUse">
<stop stop-color="#FF6B00"/>
<stop offset="1" stop-color="#F8E004"/>
</linearGradient>
<linearGradient id="paint41_linear_3592_56397" x1="4.36869" y1="3.70996" x2="14.2903" y2="8.50043" gradientUnits="userSpaceOnUse">
<stop stop-color="#FF6B00"/>
<stop offset="1" stop-color="#F8E004"/>
</linearGradient>
<linearGradient id="paint42_linear_3592_56397" x1="4.09304" y1="13.2345" x2="5.10981" y2="13.3169" gradientUnits="userSpaceOnUse">
<stop stop-color="#FF6B00"/>
<stop offset="1" stop-color="#F8E004"/>
</linearGradient>
<linearGradient id="paint43_linear_3592_56397" x1="3.14414" y1="12.2858" x2="4.15435" y2="12.3671" gradientUnits="userSpaceOnUse">
<stop stop-color="#FF6B00"/>
<stop offset="1" stop-color="#F8E004"/>
</linearGradient>
<linearGradient id="paint44_linear_3592_56397" x1="3.14414" y1="4.66528" x2="4.15435" y2="4.74662" gradientUnits="userSpaceOnUse">
<stop stop-color="#FF6B00"/>
<stop offset="1" stop-color="#F8E004"/>
</linearGradient>
<linearGradient id="paint45_linear_3592_56397" x1="2.18727" y1="11.3289" x2="3.20413" y2="11.4107" gradientUnits="userSpaceOnUse">
<stop stop-color="#FF6B00"/>
<stop offset="1" stop-color="#F8E004"/>
</linearGradient>
<linearGradient id="paint46_linear_3592_56397" x1="2.18727" y1="5.61597" x2="3.20405" y2="5.69837" gradientUnits="userSpaceOnUse">
<stop stop-color="#FF6B00"/>
<stop offset="1" stop-color="#F8E004"/>
</linearGradient>
<linearGradient id="paint47_linear_3592_56397" x1="1.23838" y1="10.3781" x2="2.24859" y2="10.4594" gradientUnits="userSpaceOnUse">
<stop stop-color="#FF6B00"/>
<stop offset="1" stop-color="#F8E004"/>
</linearGradient>
<linearGradient id="paint48_linear_3592_56397" x1="0.763847" y1="7.52161" x2="16.5861" y2="16.0155" gradientUnits="userSpaceOnUse">
<stop stop-color="#FF6B00"/>
<stop offset="1" stop-color="#F8E004"/>
</linearGradient>
<linearGradient id="paint49_linear_3592_56397" x1="1.23838" y1="6.56641" x2="2.24868" y2="6.64722" gradientUnits="userSpaceOnUse">
<stop stop-color="#FF6B00"/>
<stop offset="1" stop-color="#F8E004"/>
</linearGradient>
</defs>
</svg>
