<svg width="50" height="50" viewBox="0 0 50 50" fill="none" xmlns="http://www.w3.org/2000/svg">
<path d="M42.6584 24.9729L44.5313 22.8229L43.7167 22.2396L45.0188 21.0687L44.0146 20.325L45.3167 19.3687L44.4771 18.7312L45.8334 12.2521L43.7709 6.25M43.7709 6.25L30.5209 11.0563H19.4792L6.22919 6.25L4.16669 12.2521L5.55002 18.7312L4.68335 19.3687L6.01252 20.3271L5.00835 21.0687L6.31044 22.2375L5.49794 22.8208L7.36877 24.9729L4.51877 33.5771L7.1521 42.3687L16.4084 39.8729L18.2 41.3062L21.8667 43.75H28.1354L31.8 41.3062L33.5917 39.8729L42.875 42.3687L45.5354 33.5771L42.6584 24.9729" fill="#F5841F"/>
<path d="M43.7709 6.25L27.5105 17.9625L30.525 11.0563L43.7709 6.25ZM6.22921 6.25L22.3542 18.0688L19.4771 11.0563L6.22921 6.25ZM37.9355 33.4187L33.5917 39.8458L42.875 42.3417L45.5355 33.55L37.9355 33.4187ZM4.52087 33.5521L7.15212 42.3438L16.4084 39.8458L12.0938 33.4187L4.52087 33.5521Z" fill="#E27625"/>
<path d="M15.9208 22.5288L13.3417 26.3267L22.5167 26.7267L22.2188 17.1121L15.9208 22.5288ZM34.1063 22.5288L27.7 17.0059L27.5125 26.7267L36.6854 26.3267L34.1063 22.5288ZM16.4083 39.8454L21.9729 37.2413L17.1688 33.6309L16.4083 39.8454ZM28.0542 37.2434L33.5917 39.8475L32.8313 33.6309L28.0542 37.2434Z" fill="#E27625"/>
<path d="M33.5917 39.8454L28.0542 37.2412L28.5146 40.7475L28.4604 42.235L33.5917 39.8454ZM16.4083 39.8454L21.5667 42.235L21.5396 40.7495L21.9729 37.2433L16.4083 39.8454Z" fill="#D7C1B3"/>
<path d="M21.6458 31.2938L17.0604 29.9938L20.3167 28.5312L21.6458 31.2938ZM28.3542 31.2938L29.7083 28.5312L32.9667 29.9938L28.3542 31.2938Z" fill="#2F343B"/>
<path d="M16.4083 39.8459L17.2229 33.4188L12.0938 33.5521L16.4083 39.8459ZM32.8042 33.4188L33.5917 39.8459L37.9354 33.5521L32.8042 33.4188ZM36.6875 26.3271L27.5104 26.7271L28.3521 31.2938L29.7104 28.5313L32.9667 29.9938L36.6875 26.3271ZM17.0604 29.9938L20.3167 28.5313L21.6479 31.2938L22.5167 26.7271L13.3417 26.3271L17.0604 29.9938Z" fill="#CC6228"/>
<path d="M13.3417 26.3271L17.1688 33.6313L17.0604 29.9938L13.3417 26.3271ZM32.9667 29.9938L32.8313 33.6313L36.6854 26.3271L32.9667 29.9938ZM22.5167 26.7271L21.6479 31.2938L22.7333 36.7105L22.9771 29.5938L22.5167 26.7271ZM27.5104 26.7271L27.05 29.5688L27.2667 36.7126L28.3521 31.2959L27.5104 26.7271Z" fill="#E27625"/>
<path d="M28.3542 31.2941L27.2667 36.7108L28.0542 37.2441L32.8313 33.6316L32.9667 29.9941L28.3542 31.2941ZM17.0604 29.9941L17.1688 33.6316L21.9729 37.2441L22.7333 36.7129L21.6479 31.2962L17.0604 29.9941Z" fill="#F5841F"/>
<path d="M28.4604 42.2353L28.5146 40.7499L28.0813 40.404H21.9167L21.5375 40.7499L21.5646 42.2353L16.4062 39.8457L18.1979 41.279L21.8667 43.7499H28.1354L31.8 41.279L33.5917 39.8457L28.4604 42.2353Z" fill="#C0AD9E"/>
<path d="M28.0542 37.2441L27.2667 36.7129H22.7334L21.9729 37.2441L21.5396 40.7504L21.9188 40.4046H28.0813L28.5146 40.7504L28.0542 37.2441Z" fill="#2F343B"/>
<path d="M44.4771 18.7333L45.8334 12.25L43.7709 6.25L28.0542 17.5625L34.1063 22.5292L42.6584 24.9729L44.5313 22.8229L43.7167 22.2396L45.0188 21.0958L44.0146 20.325L45.3167 19.3687L44.4771 18.7333ZM4.16669 12.2521L5.55002 18.7312L4.68335 19.3687L5.98544 20.3521L4.98127 21.0958L6.28335 22.2375L5.47085 22.8208L7.36877 24.9729L15.9209 22.5292L21.9729 17.5646L6.22919 6.25L4.16669 12.2521Z" fill="#763E1A"/>
<path d="M42.6584 24.9733L34.1063 22.5296L36.6855 26.3275L32.8313 33.6316L37.9355 33.5525H45.5355L42.6584 24.9733ZM15.9209 22.5296L7.3688 24.9733L4.5188 33.5525H12.0938L17.1688 33.6316L13.3417 26.3275L15.9209 22.5296ZM27.5105 26.7275L28.0521 17.565L30.525 11.0566H19.4771L21.973 17.565L22.5146 26.7275L22.7334 29.5941V36.7129H27.2667L27.2938 29.5941L27.5105 26.7275Z" fill="#F5841F"/>
</svg>
