<svg width="220" height="220" viewBox="0 0 220 220" fill="none" xmlns="http://www.w3.org/2000/svg">
<g opacity="0.35">
<path d="M149.796 59.4286H149.792C148.655 59.4288 147.565 58.9776 146.761 58.174C145.957 57.3705 145.505 56.2805 145.505 55.1439C145.505 54.0072 145.956 52.917 146.76 52.1131C147.563 51.3092 148.653 50.8574 149.79 50.8571C150.926 50.8563 152.017 51.3071 152.821 52.1102C153.625 52.9134 154.078 54.0032 154.079 55.1398C154.079 56.2764 153.629 57.3668 152.825 58.1711C152.022 58.9755 150.933 59.4278 149.796 59.4286ZM149.796 48C147.902 48 146.085 48.7525 144.745 50.0921C143.406 51.4316 142.653 53.2485 142.653 55.1429C142.653 57.0373 143.406 58.8541 144.745 60.1936C146.085 61.5332 147.902 62.2857 149.796 62.2857C151.69 62.2857 153.507 61.5332 154.847 60.1936C156.186 58.8541 156.939 57.0373 156.939 55.1429C156.939 53.2485 156.186 51.4316 154.847 50.0921C153.507 48.7525 151.69 48 149.796 48ZM41.6327 110.449H41.6286C41.0658 110.449 40.5084 110.339 39.9883 110.124C39.4683 109.908 38.9957 109.593 38.5975 109.195C38.1994 108.797 37.8835 108.325 37.6678 107.805C37.4522 107.285 37.3411 106.728 37.3408 106.165C37.3405 105.602 37.4511 105.045 37.6663 104.525C37.8814 104.005 38.1969 103.532 38.5946 103.134C38.9924 102.736 39.4647 102.42 39.9846 102.205C40.5044 101.989 41.0617 101.878 41.6245 101.878C42.7611 101.876 43.8517 102.327 44.6561 103.13C45.4606 103.933 45.9132 105.023 45.9143 106.159C45.9154 107.296 45.4649 108.386 44.6619 109.191C43.859 109.995 42.7693 110.448 41.6327 110.449ZM41.6327 99.0204C39.7383 99.0204 37.9214 99.773 36.5819 101.112C35.2423 102.452 34.4898 104.269 34.4898 106.163C34.4898 108.058 35.2423 109.874 36.5819 111.214C37.9214 112.554 39.7383 113.306 41.6327 113.306C43.5271 113.306 45.3439 112.554 46.6834 111.214C48.023 109.874 48.7755 108.058 48.7755 106.163C48.7755 104.269 48.023 102.452 46.6834 101.112C45.3439 99.773 43.5271 99.0204 41.6327 99.0204ZM49.7959 58.2041C49.9835 58.2041 50.1693 58.241 50.3426 58.3128C50.5159 58.3846 50.6734 58.4898 50.8061 58.6225C50.9387 58.7552 51.044 58.9126 51.1157 59.086C51.1875 59.2593 51.2245 59.445 51.2245 59.6327V63.9184H55.5102C55.8891 63.9184 56.2524 64.0689 56.5204 64.3368C56.7883 64.6047 56.9388 64.9681 56.9388 65.3469C56.9388 65.7258 56.7883 66.0892 56.5204 66.3571C56.2524 66.625 55.8891 66.7755 55.5102 66.7755H51.2245V71.0612C51.2245 71.4401 51.074 71.8035 50.8061 72.0714C50.5382 72.3393 50.1748 72.4898 49.7959 72.4898C49.417 72.4898 49.0537 72.3393 48.7858 72.0714C48.5179 71.8035 48.3673 71.4401 48.3673 71.0612V66.7755H44.0816C43.7028 66.7755 43.3394 66.625 43.0715 66.3571C42.8036 66.0892 42.6531 65.7258 42.6531 65.3469C42.6531 64.9681 42.8036 64.6047 43.0715 64.3368C43.3394 64.0689 43.7028 63.9184 44.0816 63.9184H48.3673V59.6327C48.3673 59.2538 48.5179 58.8904 48.7858 58.6225C49.0537 58.3546 49.417 58.2041 49.7959 58.2041ZM178.918 117.855C179.218 118.155 179.386 118.562 179.386 118.986C179.386 119.41 179.218 119.816 178.918 120.116L175.524 123.51L178.918 126.904C179.072 127.052 179.195 127.228 179.279 127.424C179.364 127.619 179.408 127.829 179.41 128.042C179.412 128.255 179.372 128.466 179.292 128.664C179.211 128.861 179.092 129.04 178.941 129.19C178.791 129.341 178.611 129.46 178.414 129.54C178.217 129.62 178.006 129.661 177.793 129.658C177.58 129.656 177.37 129.611 177.174 129.527C176.979 129.442 176.802 129.319 176.655 129.165L173.265 125.771L169.876 129.163C169.728 129.317 169.552 129.44 169.356 129.524C169.161 129.609 168.951 129.654 168.738 129.656C168.525 129.659 168.314 129.618 168.116 129.538C167.919 129.458 167.74 129.339 167.589 129.188C167.439 129.038 167.32 128.859 167.239 128.662C167.159 128.464 167.118 128.253 167.12 128.04C167.122 127.827 167.167 127.617 167.251 127.422C167.336 127.226 167.459 127.049 167.612 126.902L171 123.51L167.612 120.12C167.464 119.972 167.345 119.796 167.265 119.602C167.184 119.408 167.142 119.2 167.142 118.99C167.142 118.78 167.183 118.572 167.263 118.378C167.343 118.183 167.461 118.007 167.609 117.858C167.758 117.709 167.934 117.591 168.128 117.511C168.322 117.43 168.53 117.388 168.74 117.388C168.95 117.388 169.158 117.429 169.352 117.509C169.546 117.589 169.723 117.707 169.871 117.855L173.265 121.249L176.655 117.859C176.804 117.711 176.98 117.593 177.174 117.512C177.368 117.432 177.577 117.39 177.787 117.39C177.997 117.39 178.205 117.432 178.399 117.512C178.593 117.593 178.77 117.711 178.918 117.859V117.857V117.855ZM75.8898 158.204C76.6959 158.204 77.3469 158.661 77.3469 159.224C77.3469 159.788 76.6939 160.245 75.8898 160.245H37.9898C37.1837 160.245 36.5306 159.788 36.5306 159.224C36.5306 158.661 37.1837 158.204 37.9898 158.204H75.8878H75.8898ZM94.2857 158.204C95.0755 158.204 95.7143 158.661 95.7143 159.224C95.7143 159.788 95.0755 160.245 94.2857 160.245H82.8571C82.0694 160.245 81.4286 159.788 81.4286 159.224C81.4286 158.661 82.0694 158.204 82.8571 158.204H94.2857ZM192.178 158.204C193.004 158.204 193.673 158.661 193.673 159.224C193.673 159.788 193.004 160.245 192.178 160.245H105.376C104.547 160.245 103.878 159.788 103.878 159.224C103.878 158.661 104.547 158.204 105.376 158.204H192.178ZM208.508 141.878C209.331 141.878 210 142.335 210 142.898C210 143.461 209.331 143.918 208.508 143.918H187C186.176 143.918 185.508 143.461 185.508 142.898C185.508 142.335 186.176 141.878 187 141.878H208.51H208.508ZM169.749 141.878C170.565 141.878 171.224 142.335 171.224 142.898C171.224 143.461 170.563 143.918 169.749 143.918H11.4755C10.6592 143.918 10 143.461 10 142.898C10 142.335 10.6592 141.878 11.4755 141.878H169.749Z" fill="#888888"/>
<path d="M127.296 101.8L128.04 104.704L128.704 103.569C128.788 103.428 128.9 103.305 129.033 103.208C129.166 103.111 129.317 103.041 129.477 103.003C129.638 102.966 129.804 102.961 129.966 102.988C130.128 103.016 130.284 103.076 130.422 103.165C130.55 103.249 130.661 103.358 130.747 103.485C130.833 103.613 130.892 103.756 130.922 103.906C130.989 104.225 130.937 104.558 130.775 104.841L128.947 108.01L129.594 110.398C129.639 110.556 129.725 110.699 129.842 110.814C129.96 110.929 130.105 111.011 130.264 111.053C130.423 111.094 130.59 111.094 130.749 111.051C130.907 111.009 131.052 110.926 131.169 110.81L132.891 109.096V105.331C132.893 105.161 132.929 104.994 132.999 104.839C133.068 104.685 133.169 104.546 133.295 104.433C133.421 104.32 133.569 104.234 133.73 104.181C133.891 104.128 134.062 104.11 134.23 104.127C134.538 104.159 134.808 104.31 135 104.535C135.198 104.763 135.316 105.065 135.316 105.384V106.676L137.532 104.463C137.649 104.348 137.788 104.257 137.941 104.197C138.094 104.137 138.257 104.109 138.421 104.114C138.585 104.119 138.747 104.157 138.896 104.226C139.045 104.295 139.178 104.394 139.287 104.516C139.391 104.63 139.47 104.764 139.52 104.909C139.571 105.054 139.592 105.208 139.581 105.361C139.563 105.689 139.425 105.999 139.194 106.233L137.075 108.345H138.383C138.552 108.346 138.719 108.383 138.873 108.452C139.027 108.521 139.165 108.621 139.278 108.746C139.392 108.872 139.478 109.019 139.531 109.18C139.584 109.34 139.603 109.509 139.587 109.678C139.556 109.978 139.409 110.254 139.179 110.449C138.942 110.653 138.641 110.765 138.328 110.765H134.649L132.889 112.525C132.772 112.64 132.687 112.785 132.644 112.945C132.601 113.104 132.6 113.271 132.642 113.431C132.684 113.59 132.768 113.736 132.885 113.853C133.001 113.969 133.146 114.053 133.306 114.096L135.628 114.739L138.9 112.849C139.047 112.765 139.21 112.713 139.379 112.695C139.548 112.677 139.718 112.695 139.88 112.747C140.042 112.799 140.191 112.883 140.318 112.996C140.445 113.108 140.547 113.246 140.618 113.4C140.682 113.534 140.72 113.68 140.728 113.829C140.736 113.978 140.714 114.127 140.665 114.267C140.561 114.565 140.352 114.814 140.077 114.969L138.957 115.614L141.932 116.416C142.234 116.498 142.494 116.682 142.659 116.923C142.823 117.156 142.889 117.445 142.843 117.727C142.823 117.901 142.766 118.07 142.676 118.22C142.586 118.371 142.464 118.501 142.32 118.601C142.176 118.702 142.012 118.77 141.839 118.802C141.666 118.834 141.489 118.828 141.318 118.786L138.355 118L138.989 119.09C139.149 119.361 139.198 119.682 139.14 119.978C139.086 120.273 138.919 120.536 138.675 120.712C138.54 120.814 138.384 120.886 138.218 120.923C138.052 120.96 137.88 120.961 137.714 120.927C137.548 120.892 137.391 120.822 137.254 120.722C137.117 120.621 137.003 120.493 136.92 120.345L135.053 117.125L132.369 116.404C132.222 116.378 132.071 116.388 131.929 116.435C131.787 116.481 131.659 116.562 131.556 116.67C131.453 116.778 131.378 116.909 131.339 117.053C131.299 117.197 131.295 117.348 131.328 117.494L131.389 117.774L132.067 119.92L135.406 121.847C135.562 121.937 135.696 122.06 135.799 122.208C135.901 122.356 135.97 122.525 135.999 122.703C136.028 122.88 136.017 123.062 135.966 123.235C135.916 123.408 135.828 123.568 135.708 123.702C135.516 123.909 135.259 124.043 134.979 124.083C134.7 124.123 134.416 124.067 134.173 123.923L133.024 123.263L133.812 126.218C133.896 126.519 133.869 126.84 133.736 127.123C133.611 127.394 133.385 127.606 133.106 127.714C132.946 127.776 132.776 127.803 132.605 127.794C132.435 127.785 132.268 127.74 132.116 127.662C131.964 127.584 131.83 127.475 131.722 127.342C131.615 127.209 131.537 127.055 131.494 126.89L130.704 123.933L130.043 125.063C129.935 125.247 129.782 125.399 129.598 125.505C129.414 125.611 129.206 125.667 128.994 125.667C128.717 125.664 128.45 125.566 128.237 125.39C128.023 125.213 127.877 124.969 127.822 124.698C127.765 124.392 127.819 124.076 127.975 123.806L129.812 120.623L129.169 118.225C129.124 118.066 129.039 117.922 128.922 117.806C128.804 117.691 128.659 117.608 128.499 117.566C128.34 117.524 128.172 117.524 128.013 117.566C127.854 117.609 127.709 117.692 127.591 117.808L125.869 119.527V123.292C125.868 123.461 125.831 123.628 125.762 123.782C125.693 123.936 125.592 124.075 125.467 124.188C125.341 124.301 125.194 124.387 125.033 124.44C124.872 124.493 124.703 124.512 124.534 124.496C124.234 124.464 123.958 124.317 123.763 124.088C123.559 123.852 123.447 123.551 123.447 123.239V121.947L121.23 124.157C121.119 124.269 120.986 124.358 120.84 124.418C120.694 124.479 120.537 124.509 120.379 124.508C120.079 124.507 119.79 124.395 119.567 124.194C119.444 124.086 119.347 123.952 119.28 123.802C119.214 123.653 119.181 123.49 119.183 123.327C119.183 122.994 119.316 122.655 119.571 122.402L121.687 120.29H120.381C120.212 120.289 120.045 120.253 119.89 120.184C119.736 120.116 119.597 120.015 119.483 119.89C119.37 119.764 119.284 119.617 119.23 119.456C119.177 119.296 119.157 119.126 119.173 118.957C119.205 118.657 119.351 118.381 119.581 118.186C119.819 117.982 120.121 117.869 120.434 117.869H124.114L125.873 116.11C125.992 115.994 126.077 115.849 126.121 115.69C126.165 115.53 126.166 115.361 126.124 115.201C126.081 115.041 125.997 114.895 125.88 114.778C125.763 114.661 125.617 114.577 125.457 114.535L123.122 113.91L119.849 115.8C119.706 115.88 119.55 115.931 119.387 115.949C119.225 115.967 119.061 115.953 118.904 115.906C118.748 115.86 118.602 115.782 118.476 115.679C118.35 115.575 118.247 115.447 118.171 115.302C118.101 115.164 118.059 115.014 118.048 114.86C118.036 114.706 118.055 114.551 118.104 114.404C118.204 114.094 118.414 113.831 118.696 113.665L119.818 113.02L116.857 112.22C116.553 112.135 116.29 111.944 116.114 111.682C115.946 111.433 115.883 111.129 115.938 110.835C115.967 110.669 116.029 110.51 116.123 110.369C116.216 110.229 116.337 110.109 116.479 110.018C116.621 109.927 116.78 109.867 116.947 109.841C117.113 109.815 117.284 109.824 117.447 109.867L120.406 110.653L119.745 109.52C119.626 109.309 119.573 109.066 119.594 108.824C119.614 108.582 119.707 108.352 119.86 108.164C120.014 107.975 120.22 107.837 120.453 107.768C120.685 107.698 120.933 107.7 121.165 107.774C121.464 107.877 121.716 108.085 121.873 108.359L123.724 111.529L126.414 112.245C126.569 112.264 126.727 112.246 126.873 112.192C127.02 112.138 127.152 112.05 127.258 111.935C127.365 111.821 127.442 111.682 127.484 111.532C127.527 111.381 127.533 111.223 127.502 111.069L127.494 111.029L126.71 108.733L123.371 106.804C123.214 106.715 123.08 106.591 122.977 106.443C122.874 106.295 122.806 106.126 122.777 105.948C122.748 105.77 122.759 105.587 122.81 105.414C122.86 105.241 122.949 105.081 123.069 104.947C123.261 104.74 123.518 104.606 123.797 104.566C124.077 104.526 124.361 104.582 124.604 104.727L125.753 105.388L124.936 102.376C125.106 101.38 125.124 101.353 125.147 101.325L125.24 101.316C127.236 101.135 127.214 101.514 127.296 101.8ZM129.489 116.061C129.717 116.061 129.943 116.017 130.153 115.929C130.364 115.842 130.555 115.714 130.716 115.553C130.877 115.392 131.005 115.201 131.092 114.991C131.18 114.78 131.225 114.554 131.225 114.327C131.225 114.099 131.18 113.873 131.092 113.663C131.005 113.452 130.877 113.261 130.716 113.1C130.555 112.939 130.364 112.811 130.153 112.724C129.943 112.637 129.717 112.592 129.489 112.592C129.029 112.592 128.588 112.775 128.263 113.1C127.938 113.425 127.755 113.867 127.755 114.327C127.755 114.787 127.938 115.228 128.263 115.553C128.588 115.878 129.029 116.061 129.489 116.061Z" fill="#888888"/>
<path d="M120.6 72.4897C121.1 72.6326 121.49 72.9836 121.714 73.4326C121.941 73.8816 122.002 74.4306 121.847 74.9714C121.704 75.485 121.372 75.9258 120.918 76.2061C120.705 76.3393 120.467 76.4266 120.218 76.4624C119.969 76.4983 119.716 76.4819 119.473 76.4142L89.7469 67.8897C89.5057 67.8191 89.2818 67.699 89.0896 67.537C88.8974 67.375 88.7411 67.1747 88.6306 66.9489C88.3942 66.4703 88.3468 65.9201 88.498 65.4081C88.6414 64.8945 88.9729 64.4537 89.4265 64.1734C89.6398 64.0405 89.8785 63.9536 90.1273 63.9181C90.376 63.8826 90.6295 63.8994 90.8714 63.9673L120.6 72.4897Z" fill="#888888"/>
<path d="M118.486 71.8856L104.228 121.608C103.253 125.055 100.964 127.982 97.853 129.759C96.3364 130.633 94.6597 131.194 92.9223 131.409C91.1849 131.623 89.4222 131.486 87.7387 131.006C86.0566 130.521 84.4891 129.703 83.129 128.601C81.7688 127.499 80.6437 126.135 79.8203 124.59C78.1228 121.434 77.7301 117.738 78.7264 114.296L92.9836 64.5714L118.486 71.8856ZM113.771 73.5183L96.1183 68.455L82.6693 115.355C81.8775 118.11 82.1509 120.894 83.2326 123.163C84.3122 125.429 86.1979 127.18 88.6305 127.877C91.0652 128.575 93.5918 128.088 95.7081 126.741C97.8264 125.39 99.5326 123.175 100.324 120.418L113.773 73.5183H113.771Z" fill="#888888"/>
<path d="M85.5507 97.8939L80.8568 114.271C79.0956 120.406 82.4997 126.761 88.4609 128.469C94.4201 130.18 100.675 126.592 102.434 120.459L108.814 98.2143L85.5527 97.8939H85.5507ZM90.1629 107.727C89.7661 107.625 89.3935 107.446 89.0674 107.198C88.7412 106.95 88.4681 106.64 88.2642 106.285C88.0602 105.929 87.9296 105.537 87.88 105.131C87.8305 104.724 87.863 104.312 87.9757 103.918C88.0883 103.524 88.2789 103.157 88.536 102.838C88.7931 102.52 89.1115 102.256 89.4725 102.062C89.8334 101.869 90.2295 101.75 90.6373 101.712C91.0451 101.674 91.4563 101.719 91.8466 101.843C92.6055 102.084 93.2405 102.612 93.6168 103.314C93.9931 104.016 94.081 104.837 93.8619 105.602C93.6428 106.368 93.1339 107.018 92.4433 107.415C91.7527 107.811 90.9347 107.923 90.1629 107.727ZM91.1303 122.865C90.8626 122.801 90.6107 122.683 90.3898 122.519C90.1689 122.354 89.9836 122.147 89.8449 121.909C89.7062 121.671 89.6171 121.408 89.5829 121.135C89.5487 120.861 89.5702 120.584 89.6459 120.319C89.7217 120.055 89.8503 119.808 90.0239 119.594C90.1975 119.381 90.4125 119.204 90.656 119.076C90.8996 118.948 91.1666 118.87 91.441 118.847C91.7154 118.825 91.9915 118.858 92.2527 118.945C92.752 119.111 93.1677 119.464 93.4132 119.929C93.6586 120.395 93.7147 120.937 93.5699 121.443C93.4251 121.949 93.0904 122.379 92.6358 122.644C92.1813 122.909 91.6419 122.988 91.1303 122.865ZM95.3405 115.58C94.8201 115.43 94.3804 115.08 94.1182 114.606C93.8561 114.132 93.7929 113.574 93.9425 113.053C94.0922 112.533 94.4425 112.093 94.9163 111.831C95.3901 111.569 95.9486 111.505 96.4691 111.655C96.9897 111.805 97.4297 112.155 97.692 112.629C97.9544 113.103 98.0177 113.662 97.868 114.183C97.7184 114.703 97.368 115.143 96.894 115.406C96.42 115.668 95.8612 115.731 95.3405 115.582V115.58ZM97.1038 75.749L100.047 76.5919C100.437 76.7039 100.767 76.9664 100.963 77.3216C101.16 77.6767 101.208 78.0955 101.096 78.4858C100.984 78.876 100.721 79.2058 100.366 79.4025C100.011 79.5992 99.592 79.6468 99.2017 79.5347L96.2589 78.6919C95.8686 78.5798 95.5388 78.3174 95.3421 77.9622C95.1454 77.607 95.0978 77.1882 95.2099 76.798C95.3219 76.4078 95.5844 76.078 95.9396 75.8813C96.2947 75.6846 96.7135 75.637 97.1038 75.749ZM95.416 81.6347L98.3589 82.4776C98.7491 82.5896 99.0789 82.8521 99.2756 83.2073C99.4723 83.5625 99.5199 83.9812 99.4078 84.3715C99.2958 84.7617 99.0333 85.0915 98.6781 85.2882C98.323 85.4849 97.9042 85.5325 97.514 85.4204L94.5711 84.5755C94.1923 84.454 93.8757 84.1898 93.6884 83.8388C93.5011 83.4879 93.4578 83.0778 93.5676 82.6955C93.6775 82.3131 93.9319 81.9886 94.2769 81.7906C94.6219 81.5926 95.0305 81.5367 95.416 81.6347ZM93.7282 87.5184L96.6711 88.3633C96.8643 88.4188 97.0447 88.5118 97.202 88.637C97.3593 88.7622 97.4904 88.9171 97.5878 89.093C97.6852 89.2689 97.747 89.4622 97.7697 89.6619C97.7924 89.8617 97.7756 90.064 97.7201 90.2572C97.6646 90.4504 97.5716 90.6308 97.4464 90.7881C97.3212 90.9454 97.1663 91.0765 96.9904 91.1739C96.8145 91.2713 96.6212 91.3331 96.4214 91.3558C96.2217 91.3785 96.0194 91.3616 95.8262 91.3062L92.8833 90.4613C92.4931 90.3492 92.1633 90.0867 91.9666 89.7316C91.7699 89.3764 91.7223 88.9576 91.8344 88.5674C91.9464 88.1771 92.2089 87.8474 92.5641 87.6507C92.9192 87.4539 93.338 87.4064 93.7282 87.5184Z" fill="#888888"/>
</g>
</svg>
