<svg width="50" height="50" viewBox="0 0 50 50" fill="none" xmlns="http://www.w3.org/2000/svg">
<path d="M9.09794 41.6663C14.4146 41.6663 18.4104 37.2247 20.7938 33.7143C20.5094 34.4477 20.357 35.2257 20.3438 36.0122C20.3438 38.0622 21.5688 39.5226 23.9854 39.5226C27.3042 39.5226 30.8479 36.7268 32.6854 33.7143C32.5615 34.106 32.4962 34.5139 32.4917 34.9247C32.4917 36.3538 33.3292 37.2559 35.0375 37.2559C40.4188 37.2559 45.8334 28.0893 45.8334 20.0768C45.8334 13.8309 42.5459 8.33301 34.2959 8.33301C19.7959 8.33301 4.16669 25.358 4.16669 36.3538C4.16669 40.6726 6.58335 41.6663 9.09794 41.6663ZM29.3021 19.3913C29.3021 17.8393 30.2042 16.7518 31.525 16.7518C32.8146 16.7518 33.7167 17.8393 33.7167 19.3913C33.7167 20.9455 32.8146 22.0643 31.525 22.0643C30.2042 22.0643 29.3021 20.9455 29.3021 19.3913ZM36.1979 19.3913C36.1979 17.8393 37.1 16.7518 38.4209 16.7518C39.7125 16.7518 40.6125 17.8393 40.6125 19.3913C40.6125 20.9455 39.7104 22.0643 38.4209 22.0643C37.1 22.0643 36.1979 20.9455 36.1979 19.3913Z" fill="#AB9FF2"/>
</svg>
