<svg width="34" height="21" viewBox="0 0 34 21" fill="none" xmlns="http://www.w3.org/2000/svg">
<path d="M33.5774 3.40483C33.2409 3.20887 32.7915 3.20488 32.451 3.39282L26.7333 6.4905C26.5134 6.61128 26.3597 6.79922 26.3091 7.01276C26.2566 7.22549 26.3111 7.44706 26.459 7.62784C26.7877 8.03096 26.9609 8.50124 26.9609 8.98834C26.9609 10.3432 25.6204 11.4454 23.9726 11.4454C22.3248 11.4454 20.9844 10.3432 20.9844 8.98834C20.9844 8.19171 21.4629 7.44067 22.2625 6.97836C22.712 6.71923 22.8209 6.20892 22.5057 5.83862L17.8151 0.328712C17.4455 -0.109571 16.5545 -0.109571 16.1848 0.328712L11.4942 5.83868C11.1791 6.20898 11.288 6.71928 11.7374 6.97842C12.537 7.44073 13.0156 8.19176 13.0156 8.98839C13.0156 10.3433 11.6751 11.4454 10.0273 11.4454C8.37952 11.4454 7.03905 10.3433 7.03905 8.98839C7.03905 8.5013 7.21217 8.03102 7.54101 7.6279C7.6889 7.44712 7.74335 7.2256 7.69082 7.01282C7.64022 6.79927 7.48656 6.61128 7.26669 6.49056L1.54898 3.39287C1.20659 3.20494 0.759073 3.20892 0.422527 3.40488C0.0859798 3.60003 -0.0696765 3.94478 0.0295345 4.27272L4.07998 17.377C4.2045 17.7897 4.69085 18.0656 5.21028 17.9864C15.3024 15.2782 20.9844 15.7276 28.7897 17.9864C28.8441 17.9944 28.9006 17.9976 28.9531 17.9976C29.4025 17.9976 29.8072 17.7465 29.92 17.377L33.9705 4.27272C34.0696 3.94473 33.9141 3.59997 33.5774 3.40483Z" fill="url(#paint0_linear_3600_9688)"/>
<path d="M18.7536 7.15208V14.4248H17.2159V8.61159H17.1733L15.5078 9.65563V8.29199L17.3082 7.15208H18.7536Z" fill="white"/>
<defs>
<linearGradient id="paint0_linear_3600_9688" x1="11.1273" y1="3.14306e-07" x2="37.1024" y2="9.64406" gradientUnits="userSpaceOnUse">
<stop stop-color="#EB1484"/>
<stop offset="0.9999" stop-color="#C91CC3"/>
<stop offset="1" stop-color="#C81CC5"/>
<stop offset="1" stop-color="#C81CC5"/>
</linearGradient>
</defs>
</svg>
