<svg width="16" height="16" viewBox="0 0 16 16" fill="none" xmlns="http://www.w3.org/2000/svg">
<path fill-rule="evenodd" clip-rule="evenodd" d="M10.3044 0.406338C10.5696 0.542417 10.7122 0.837954 10.6538 1.1302L9.76495 5.57429L13.2341 6.87524C13.4426 6.95339 13.5982 7.13041 13.6491 7.34711C13.6999 7.56382 13.6393 7.79161 13.4874 7.95433L6.48742 15.4543C6.28407 15.6722 5.96081 15.7287 5.69566 15.5926C5.4305 15.4565 5.28788 15.161 5.34633 14.8687L6.23515 10.4246L2.76597 9.12367C2.55755 9.04552 2.40189 8.8685 2.35102 8.6518C2.30016 8.43509 2.3608 8.2073 2.51268 8.04458L9.51268 0.544576C9.71603 0.326697 10.0393 0.270258 10.3044 0.406338ZM4.1678 8.22536L7.23413 9.37524C7.54017 9.49 7.71787 9.8097 7.65377 10.1302L7.11405 12.8288L11.8323 7.77355L8.76597 6.62367C8.45994 6.50891 8.28223 6.18921 8.34633 5.86871L8.88606 3.17008L4.1678 8.22536Z" fill="url(#paint0_linear_3585_27207)"/>
<defs>
<linearGradient id="paint0_linear_3585_27207" x1="2.63162" y1="0.332764" x2="14.7186" y2="1.05208" gradientUnits="userSpaceOnUse">
<stop stop-color="#FF6B00"/>
<stop offset="1" stop-color="#F8E004"/>
</linearGradient>
</defs>
</svg>
