<svg width="18" height="18" viewBox="0 0 18 18" fill="none" xmlns="http://www.w3.org/2000/svg">
<path id="Subtract" fill-rule="evenodd" clip-rule="evenodd" d="M10.7854 0.48745C10.864 0.639836 10.8835 0.834989 10.9225 1.2253C10.9964 1.96407 11.0333 2.33346 11.188 2.53613C11.3841 2.79322 11.703 2.92534 12.0235 2.88223C12.2761 2.84824 12.5635 2.61317 13.1381 2.14302C13.4417 1.89463 13.5935 1.77044 13.7568 1.71826C13.9642 1.65199 14.1887 1.66319 14.3885 1.74977C14.5458 1.81794 14.6845 1.95662 14.9619 2.23398L15.766 3.0381C16.0433 3.31547 16.182 3.45415 16.2502 3.61148C16.3368 3.8113 16.348 4.03573 16.2817 4.24318C16.2295 4.40651 16.1053 4.5583 15.8569 4.86189C15.3868 5.43654 15.1517 5.72386 15.1177 5.9765C15.0746 6.29696 15.2067 6.61591 15.4638 6.81203C15.6665 6.96665 16.0359 7.00359 16.7747 7.07747C17.165 7.1165 17.3602 7.13602 17.5126 7.21462C17.7061 7.31444 17.8569 7.48105 17.937 7.68356C18 7.84302 18 8.03915 18 8.43142V9.56869C18 9.96085 18 10.1569 17.937 10.3164C17.8569 10.5189 17.7061 10.6856 17.5125 10.7854C17.3601 10.864 17.165 10.8835 16.7748 10.9225C16.0362 10.9964 15.6669 11.0333 15.4643 11.1878C15.2071 11.384 15.0749 11.7031 15.1181 12.0236C15.1521 12.2762 15.3871 12.5634 15.8571 13.1378C16.1054 13.4413 16.2295 13.593 16.2817 13.7563C16.348 13.9638 16.3368 14.1884 16.2502 14.3882C16.182 14.5455 16.0434 14.6841 15.7661 14.9614L14.9619 15.7656C14.6845 16.043 14.5459 16.1817 14.3885 16.2498C14.1887 16.3364 13.9643 16.3476 13.7568 16.2813C13.5935 16.2292 13.4417 16.105 13.1381 15.8566C12.5635 15.3864 12.2762 15.1514 12.0235 15.1174C11.7031 15.0743 11.3841 15.2064 11.188 15.4635C11.0334 15.6661 10.9964 16.0356 10.9226 16.7745C10.8835 17.165 10.864 17.3602 10.7853 17.5126C10.6855 17.7061 10.519 17.8568 10.3165 17.9369C10.157 18 9.96084 18 9.56847 18H8.43142C8.03915 18 7.84302 18 7.68356 17.937C7.48105 17.8569 7.31444 17.7061 7.21462 17.5126C7.13602 17.3602 7.1165 17.165 7.07747 16.7747C7.00359 16.0359 6.96665 15.6665 6.81203 15.4638C6.61591 15.2067 6.29696 15.0746 5.97651 15.1177C5.72387 15.1517 5.43653 15.3868 4.86187 15.857C4.55827 16.1054 4.40646 16.2296 4.24312 16.2818C4.03569 16.348 3.81126 16.3368 3.61145 16.2502C3.45411 16.1821 3.31542 16.0434 3.03805 15.766L2.23395 14.9619C1.95658 14.6845 1.8179 14.5459 1.74973 14.3885C1.66315 14.1887 1.65195 13.9643 1.71822 13.7568C1.7704 13.5935 1.8946 13.4417 2.14299 13.1381C2.61316 12.5635 2.84824 12.2761 2.88222 12.0235C2.92533 11.703 2.79322 11.3841 2.53613 11.188C2.33346 11.0333 1.96407 10.9964 1.22529 10.9225C0.834987 10.8835 0.639837 10.864 0.487451 10.7854C0.293902 10.6856 0.143114 10.5189 0.0630424 10.3164C0 10.157 0 9.96085 0 9.5686V8.43151C0 8.03916 0 7.84298 0.0630757 7.68349C0.143145 7.48104 0.293887 7.31447 0.487371 7.21465C0.63979 7.13602 0.834992 7.1165 1.2254 7.07746C1.96437 7.00356 2.33387 6.96661 2.53657 6.81193C2.79356 6.61583 2.92563 6.29697 2.88258 5.9766C2.84862 5.72388 2.61347 5.43647 2.14315 4.86164C1.89465 4.55791 1.7704 4.40605 1.71822 4.24265C1.65201 4.03528 1.6632 3.81094 1.74972 3.61119C1.81789 3.45379 1.95663 3.31505 2.2341 3.03758L3.03809 2.23359C3.31546 1.95622 3.45415 1.81753 3.61149 1.74935C3.8113 1.66278 4.03573 1.65159 4.24317 1.71785C4.4065 1.77003 4.55833 1.89425 4.86198 2.14269C5.43655 2.61279 5.72384 2.84785 5.9764 2.88186C6.29695 2.92503 6.61602 2.79287 6.81216 2.53568C6.9667 2.33304 7.00362 1.96375 7.07748 1.22517C7.1165 0.834982 7.13601 0.639885 7.21457 0.487534C7.3144 0.293918 7.48107 0.143082 7.68366 0.0630083C7.84308 0 8.03915 0 8.43129 0H9.5686C9.96085 0 10.157 0 10.3164 0.063043C10.5189 0.143115 10.6856 0.293902 10.7854 0.48745ZM9 12.6C10.9882 12.6 12.6 10.9882 12.6 9C12.6 7.01178 10.9882 5.4 9 5.4C7.01178 5.4 5.4 7.01178 5.4 9C5.4 10.9882 7.01178 12.6 9 12.6Z" fill="#888888"/>
</svg>
