<svg width="18" height="18" viewBox="0 0 18 18" fill="none" xmlns="http://www.w3.org/2000/svg">
<g id="mingcute:solana-sol-fill">
<g id="Group">
<path id="Vector" fill-rule="evenodd" clip-rule="evenodd" d="M5.21959 2.21975C5.36021 2.07909 5.55094 2.00004 5.74984 2H15.4998C15.6482 2.00003 15.7931 2.04404 15.9164 2.12645C16.0397 2.20886 16.1358 2.32598 16.1926 2.46301C16.2493 2.60003 16.2642 2.75081 16.2353 2.89627C16.2064 3.04174 16.1349 3.17536 16.0301 3.28025L13.7801 5.53025C13.6395 5.67091 13.4487 5.74996 13.2498 5.75H3.49984C3.35153 5.74997 3.20655 5.70596 3.08325 5.62355C2.95994 5.54114 2.86383 5.42402 2.80708 5.28699C2.75033 5.14997 2.73548 4.99919 2.7644 4.85373C2.79333 4.70826 2.86473 4.57464 2.96959 4.46975L5.21959 2.21975ZM2.83834 6.896C2.90243 6.7763 2.99781 6.67624 3.11431 6.60649C3.23081 6.53675 3.36406 6.49995 3.49984 6.5H13.2498C13.3733 6.49998 13.4948 6.53043 13.6037 6.58865C13.7125 6.64687 13.8053 6.73106 13.8738 6.83375L15.3738 9.08375C15.4492 9.1967 15.4925 9.32799 15.4991 9.46361C15.5057 9.59923 15.4753 9.7341 15.4112 9.85382C15.3472 9.97355 15.2518 10.0736 15.1353 10.1434C15.0189 10.2132 14.8856 10.25 14.7498 10.25H4.99984C4.8764 10.25 4.75486 10.2196 4.646 10.1613C4.53715 10.1031 4.44435 10.0189 4.37584 9.91625L2.87584 7.66625C2.80043 7.55329 2.75711 7.42197 2.75051 7.28631C2.74391 7.15066 2.77426 7.01575 2.83834 6.896ZM4.46959 11.2197C4.61021 11.0791 4.80094 11 4.99984 11H14.7498C14.8982 11 15.0431 11.044 15.1664 11.1264C15.2897 11.2089 15.3858 11.326 15.4426 11.463C15.4993 11.6 15.5142 11.7508 15.4853 11.8963C15.4564 12.0417 15.3849 12.1754 15.2801 12.2803L13.0301 14.5303C12.8895 14.6709 12.6987 14.75 12.4998 14.75H2.74984C2.60153 14.75 2.45655 14.706 2.33325 14.6236C2.20994 14.5411 2.11383 14.424 2.05708 14.287C2.00033 14.15 1.98548 13.9992 2.0144 13.8537C2.04333 13.7083 2.11473 13.5746 2.21959 13.4697L4.46959 11.2197Z" fill="white"/>
</g>
</g>
</svg>
