<svg width="18" height="18" viewBox="0 0 18 18" fill="none" xmlns="http://www.w3.org/2000/svg">
<path fill-rule="evenodd" clip-rule="evenodd" d="M6.46971 3.21975C6.61033 3.07909 6.80107 3.00004 6.99996 3H16.75C16.8983 3.00003 17.0432 3.04404 17.1666 3.12645C17.2899 3.20886 17.386 3.32598 17.4427 3.46301C17.4995 3.60003 17.5143 3.75081 17.4854 3.89627C17.4565 4.04174 17.3851 4.17536 17.2802 4.28025L15.0302 6.53025C14.8896 6.67091 14.6989 6.74996 14.5 6.75H4.74996C4.60165 6.74997 4.45668 6.70596 4.33337 6.62355C4.21006 6.54114 4.11396 6.42402 4.0572 6.28699C4.00045 6.14997 3.9856 5.99919 4.01452 5.85373C4.04345 5.70826 4.11486 5.57464 4.21971 5.46975L6.46971 3.21975ZM4.08846 7.896C4.15255 7.7763 4.24793 7.67624 4.36443 7.60649C4.48093 7.53675 4.61418 7.49995 4.74996 7.5H14.5C14.6234 7.49998 14.7449 7.53043 14.8538 7.58865C14.9627 7.64687 15.0555 7.73106 15.124 7.83375L16.624 10.0837C16.6993 10.1967 16.7426 10.328 16.7492 10.4636C16.7558 10.5992 16.7254 10.7341 16.6614 10.8538C16.5973 10.9735 16.502 11.0736 16.3855 11.1434C16.269 11.2132 16.1357 11.25 16 11.25H6.24996C6.12652 11.25 6.00498 11.2196 5.89613 11.1613C5.78727 11.1031 5.69447 11.0189 5.62596 10.9163L4.12596 8.66625C4.05055 8.55329 4.00724 8.42197 4.00063 8.28631C3.99403 8.15066 4.02438 8.01575 4.08846 7.896ZM5.71971 12.2197C5.86033 12.0791 6.05107 12 6.24996 12H16C16.1483 12 16.2932 12.044 16.4166 12.1264C16.5399 12.2089 16.636 12.326 16.6927 12.463C16.7495 12.6 16.7643 12.7508 16.7354 12.8963C16.7065 13.0417 16.6351 13.1754 16.5302 13.2803L14.2802 15.5303C14.1396 15.6709 13.9489 15.75 13.75 15.75H3.99996C3.85165 15.75 3.70668 15.706 3.58337 15.6236C3.46006 15.5411 3.36396 15.424 3.3072 15.287C3.25045 15.15 3.2356 14.9992 3.26452 14.8537C3.29345 14.7083 3.36486 14.5746 3.46971 14.4697L5.71971 12.2197Z" fill="white"/>
</svg>
