<svg width="20" height="20" viewBox="0 0 20 20" fill="none" xmlns="http://www.w3.org/2000/svg">
<path d="M10.7359 0.479701L13.3813 6.09166L19.2965 6.99159C19.9696 7.09395 20.2383 7.96005 19.7513 8.45717L15.471 12.8254L16.4814 18.9936C16.5964 19.6954 15.8927 20.2307 15.2907 19.8993L9.99997 16.9871L4.70929 19.8993C4.10726 20.2307 3.40359 19.6954 3.51859 18.9936L4.52901 12.8254L0.248717 8.45713C-0.238351 7.96001 0.0304369 7.09399 0.703559 6.99154L6.61873 6.09162L9.26407 0.479701C9.56513 -0.158924 10.4348 -0.158924 10.7359 0.479701Z" fill="url(#paint0_linear_3600_7290)"/>
<path d="M13.3814 6.09092L10.7361 0.478958C10.5856 0.159666 10.2929 0 10.0002 0V10.6249L13.3814 6.09092Z" fill="url(#paint1_linear_3600_7290)"/>
<path d="M15.4712 12.8247L19.7515 8.45636C19.9918 8.21114 20.0478 7.87623 19.9624 7.5874L10.0002 10.6249L15.4712 12.8247Z" fill="url(#paint2_linear_3600_7290)"/>
<path d="M16.1576 19.8313L10.0002 10.625V16.9865L15.2909 19.8987C15.593 20.065 15.9207 20.013 16.1576 19.8313Z" fill="url(#paint3_linear_3600_7290)"/>
<path d="M9.99945 10.625L4.52846 12.8248L3.51807 18.993C3.46076 19.3426 3.60678 19.6509 3.84205 19.8313L9.99945 10.625Z" fill="url(#paint4_linear_3600_7290)"/>
<path d="M0.0373535 7.58736L9.9995 10.6248L6.61827 6.09082L0.703093 6.99078C0.36204 7.04264 0.125088 7.29069 0.0373535 7.58736Z" fill="url(#paint5_linear_3600_7290)"/>
<path d="M4.52878 12.8244L0.248483 8.45612C0.00821029 8.2109 -0.0478442 7.87598 0.0375852 7.58716L9.99974 10.6246L4.52878 12.8244Z" fill="url(#paint6_linear_3600_7290)"/>
<defs>
<linearGradient id="paint0_linear_3600_7290" x1="10.0003" y1="2.33311" x2="10.0003" y2="25.4379" gradientUnits="userSpaceOnUse">
<stop stop-color="#FFCF95"/>
<stop offset="0.427" stop-color="#FFC954"/>
<stop offset="1" stop-color="#FFC200"/>
</linearGradient>
<linearGradient id="paint1_linear_3600_7290" x1="15.184" y1="5.31189" x2="8.51299" y2="5.31189" gradientUnits="userSpaceOnUse">
<stop stop-color="#FFC200" stop-opacity="0"/>
<stop offset="0.203" stop-color="#FFBB00" stop-opacity="0.203"/>
<stop offset="0.499" stop-color="#FFA700" stop-opacity="0.499"/>
<stop offset="0.852" stop-color="#FF8800" stop-opacity="0.852"/>
<stop offset="1" stop-color="#FF7800"/>
</linearGradient>
<linearGradient id="paint2_linear_3600_7290" x1="16.3236" y1="16.0131" x2="14.3943" y2="6.93853" gradientUnits="userSpaceOnUse">
<stop stop-color="#FFC200" stop-opacity="0"/>
<stop offset="0.203" stop-color="#FFBB00" stop-opacity="0.203"/>
<stop offset="0.499" stop-color="#FFA700" stop-opacity="0.499"/>
<stop offset="0.852" stop-color="#FF8800" stop-opacity="0.852"/>
<stop offset="1" stop-color="#FF7800"/>
</linearGradient>
<linearGradient id="paint3_linear_3600_7290" x1="7.75716" y1="20.8003" x2="14.9941" y2="13.8882" gradientUnits="userSpaceOnUse">
<stop stop-color="#FFC200" stop-opacity="0"/>
<stop offset="0.203" stop-color="#FFBB00" stop-opacity="0.203"/>
<stop offset="0.499" stop-color="#FFA700" stop-opacity="0.499"/>
<stop offset="0.852" stop-color="#FF8800" stop-opacity="0.852"/>
<stop offset="1" stop-color="#FF7800"/>
</linearGradient>
<linearGradient id="paint4_linear_3600_7290" x1="2.82207" y1="11.6388" x2="8.1134" y2="15.8669" gradientUnits="userSpaceOnUse">
<stop stop-color="#FFC200" stop-opacity="0"/>
<stop offset="0.203" stop-color="#FFBB00" stop-opacity="0.203"/>
<stop offset="0.499" stop-color="#FFA700" stop-opacity="0.499"/>
<stop offset="0.852" stop-color="#FF8800" stop-opacity="0.852"/>
<stop offset="1" stop-color="#FF7800"/>
</linearGradient>
<linearGradient id="paint5_linear_3600_7290" x1="6.64538" y1="4.26967" x2="4.40364" y2="10.3477" gradientUnits="userSpaceOnUse">
<stop stop-color="#FFC200" stop-opacity="0"/>
<stop offset="0.203" stop-color="#FFBB00" stop-opacity="0.203"/>
<stop offset="0.499" stop-color="#FFA700" stop-opacity="0.499"/>
<stop offset="0.852" stop-color="#FF8800" stop-opacity="0.852"/>
<stop offset="1" stop-color="#FF7800"/>
</linearGradient>
<linearGradient id="paint6_linear_3600_7290" x1="14.4253" y1="4.91092" x2="-0.96588" y2="11.1719" gradientUnits="userSpaceOnUse">
<stop stop-color="#FFC200" stop-opacity="0"/>
<stop offset="0.203" stop-color="#FFBB00" stop-opacity="0.203"/>
<stop offset="0.499" stop-color="#FFA700" stop-opacity="0.499"/>
<stop offset="0.852" stop-color="#FF8800" stop-opacity="0.852"/>
<stop offset="1" stop-color="#FF7800"/>
</linearGradient>
</defs>
</svg>
