<svg width="25" height="24" viewBox="0 0 25 24" fill="none" xmlns="http://www.w3.org/2000/svg">
<g id="comment">
<path id="Vector" d="M5.75 18C4.88805 18 4.0614 17.6576 3.4519 17.0481C2.84241 16.4386 2.5 15.612 2.5 14.75V6.25C2.5 5.38805 2.84241 4.5614 3.4519 3.9519C4.0614 3.34241 4.88805 3 5.75 3H19.25C19.6768 3 20.0994 3.08406 20.4937 3.24739C20.888 3.41072 21.2463 3.65011 21.5481 3.9519C21.8499 4.25369 22.0893 4.61197 22.2526 5.00628C22.4159 5.40059 22.5 5.8232 22.5 6.25V14.75C22.5 15.1768 22.4159 15.5994 22.2526 15.9937C22.0893 16.388 21.8499 16.7463 21.5481 17.0481C21.2463 17.3499 20.888 17.5893 20.4937 17.7526C20.0994 17.9159 19.6768 18 19.25 18H13.512L8.5 21.75C8.31428 21.889 8.09356 21.9736 7.86251 21.9943C7.63146 22.015 7.39922 21.971 7.19176 21.8672C6.9843 21.7634 6.80981 21.6039 6.68782 21.4066C6.56582 21.2093 6.50114 20.982 6.501 20.75V18H5.751H5.75ZM13.014 16.5H19.25C19.7141 16.5 20.1592 16.3156 20.4874 15.9874C20.8156 15.6592 21 15.2141 21 14.75V6.25C21 5.78587 20.8156 5.34075 20.4874 5.01256C20.1592 4.68437 19.7141 4.5 19.25 4.5H5.75C5.28587 4.5 4.84075 4.68437 4.51256 5.01256C4.18437 5.34075 4 5.78587 4 6.25V14.75C4 15.716 4.784 16.5 5.75 16.5H7.999V20.25L13.014 16.5Z" fill="#888888"/>
</g>
</svg>
