<svg width="21" height="21" viewBox="0 0 21 21" fill="none" xmlns="http://www.w3.org/2000/svg">
<path d="M20.8493 18.9462H19.8931V19.9024H20.8493V18.9462Z" fill="url(#paint0_linear_3592_56453)"/>
<path d="M19.8937 1.80249H18.9437V2.75873H17.9937V3.70872H18.9437V4.66496H19.8937V3.70872H20.8499V2.75873H19.8937V1.80249Z" fill="url(#paint1_linear_3592_56453)"/>
<path d="M19.8943 15.139H18.9443V16.089H19.8943V15.139Z" fill="url(#paint2_linear_3592_56453)"/>
<path d="M18.9437 16.0894H17.9937V17.0456H18.9437V16.0894Z" fill="url(#paint3_linear_3592_56453)"/>
<path d="M17.9943 15.139H17.0381V16.089H17.9943V15.139Z" fill="url(#paint4_linear_3592_56453)"/>
<path d="M16.0879 20.8516V19.9016H17.0379V18.9454H16.0879V17.9954H15.1316V18.9454H14.1816V19.9016H15.1316V20.8516H16.0879Z" fill="url(#paint5_linear_3592_56453)"/>
<path d="M15.1316 1.80249H14.1816V2.75873H15.1316V1.80249Z" fill="url(#paint6_linear_3592_56453)"/>
<path d="M12.2752 0.852051H11.3252V1.80204H12.2752V0.852051Z" fill="url(#paint7_linear_3592_56453)"/>
<path d="M7.51299 1.80249H6.56299V2.75873H7.51299V1.80249Z" fill="url(#paint8_linear_3592_56453)"/>
<path d="M6.5623 17.9954H5.6123V18.9454H6.5623V17.9954Z" fill="url(#paint9_linear_3592_56453)"/>
<path d="M3.70576 16.0897H2.74951V17.046H3.70576V16.0897Z" fill="url(#paint10_linear_3592_56453)"/>
<path d="M2.75078 19.9014H1.80078V20.8514H2.75078V19.9014Z" fill="url(#paint11_linear_3592_56453)"/>
<path d="M2.75078 17.045H1.80078V17.995H2.75078V17.045Z" fill="url(#paint12_linear_3592_56453)"/>
<path d="M2.75078 15.139H1.80078V16.089H2.75078V15.139Z" fill="url(#paint13_linear_3592_56453)"/>
<path d="M1.8001 3.70814H2.7501V2.75816H3.70635V1.80192H2.7501V0.851929H1.8001V1.80192H0.850098V2.75816H1.8001V3.70814Z" fill="url(#paint14_linear_3592_56453)"/>
<path d="M1.8001 16.0894H0.850098V17.0456H1.8001V16.0894Z" fill="url(#paint15_linear_3592_56453)"/>
<path d="M18.9437 14.1837H17.9937V15.14H18.9437V14.1837Z" fill="url(#paint16_linear_3592_56453)"/>
<path d="M11.788 5.63293H13.4367V6.45457H14.2583V7.28161H15.0854V8.93029H15.907V13.0439H15.0854V14.6925H14.2583V15.5196H13.4367V16.3412H11.788V17.1629H7.66895V17.9899H13.4367V17.1629H15.0854V16.3412H15.907V15.5196H16.7341V14.6925H17.5557V13.0439H18.3774V8.93029H17.5557V7.28161H16.7341V6.45457H15.907V5.63293H15.0854V4.81129H13.4367V3.98425H7.66895V4.81129H11.788V5.63293Z" fill="url(#paint17_linear_3592_56453)"/>
<path d="M15.0854 8.93091H14.2583V13.0445H15.0854V8.93091Z" fill="url(#paint18_linear_3592_56453)"/>
<path d="M14.2582 13.0441H13.4365V13.8711H14.2582V13.0441Z" fill="url(#paint19_linear_3592_56453)"/>
<path d="M14.2582 8.10315H13.4365V8.93019H14.2582V8.10315Z" fill="url(#paint20_linear_3592_56453)"/>
<path d="M13.4359 13.8702H12.6143V14.6919H13.4359V13.8702Z" fill="url(#paint21_linear_3592_56453)"/>
<path d="M13.4359 7.28076H12.6143V8.1024H13.4359V7.28076Z" fill="url(#paint22_linear_3592_56453)"/>
<path d="M12.6151 14.6921H11.7881V15.5192H12.6151V14.6921Z" fill="url(#paint23_linear_3592_56453)"/>
<path d="M12.6151 6.45471H11.7881V7.28175H12.6151V6.45471Z" fill="url(#paint24_linear_3592_56453)"/>
<path d="M11.788 15.519H7.66895V16.3407H11.788V15.519Z" fill="url(#paint25_linear_3592_56453)"/>
<path d="M11.7875 11.3998H10.9658V13.0431H11.7875V11.3998Z" fill="url(#paint26_linear_3592_56453)"/>
<path d="M11.7875 8.93091H10.9658V9.75254H11.7875V8.93091Z" fill="url(#paint27_linear_3592_56453)"/>
<path d="M11.788 5.63269H7.66895V6.45433H11.788V5.63269Z" fill="url(#paint28_linear_3592_56453)"/>
<path d="M9.31725 13.8701V14.6917H10.1389V13.8701H10.9659V13.043H10.1389V11.3998H10.9659V10.5727H10.1389V8.92944H10.9659V8.1024H10.1389V7.28076H9.31725V8.1024H8.49561V8.92944H9.31725V10.5727H8.49561V11.3998H9.31725V13.043H8.49561V13.8701H9.31725Z" fill="url(#paint29_linear_3592_56453)"/>
<path d="M8.496 12.2217H7.66895V13.0433H8.496V12.2217Z" fill="url(#paint30_linear_3592_56453)"/>
<path d="M8.496 8.93091H7.66895V10.5742H8.496V8.93091Z" fill="url(#paint31_linear_3592_56453)"/>
<path d="M7.66819 16.3407H6.0249V17.1623H7.66819V16.3407Z" fill="url(#paint32_linear_3592_56453)"/>
<path d="M7.66881 14.6926H6.84717V15.5197H7.66881V14.6926Z" fill="url(#paint33_linear_3592_56453)"/>
<path d="M7.66881 6.45471H6.84717V7.28175H7.66881V6.45471Z" fill="url(#paint34_linear_3592_56453)"/>
<path d="M7.66819 4.81201H6.0249V5.63365H7.66819V4.81201Z" fill="url(#paint35_linear_3592_56453)"/>
<path d="M6.84655 13.8702H6.0249V14.6919H6.84655V13.8702Z" fill="url(#paint36_linear_3592_56453)"/>
<path d="M6.84655 7.28076H6.0249V8.1024H6.84655V7.28076Z" fill="url(#paint37_linear_3592_56453)"/>
<path d="M6.02578 15.5203H5.19873V16.3419H6.02578V15.5203Z" fill="url(#paint38_linear_3592_56453)"/>
<path d="M6.02578 13.0441H5.19873V13.8711H6.02578V13.0441Z" fill="url(#paint39_linear_3592_56453)"/>
<path d="M6.02529 8.10315H5.19824V8.93019H6.02529V8.10315Z" fill="url(#paint40_linear_3592_56453)"/>
<path d="M6.02578 5.63269H5.19873V6.45433H6.02578V5.63269Z" fill="url(#paint41_linear_3592_56453)"/>
<path d="M5.19958 14.6921H4.37793V15.5192H5.19958V14.6921Z" fill="url(#paint42_linear_3592_56453)"/>
<path d="M5.19958 8.93091H4.37793V13.0445H5.19958V8.93091Z" fill="url(#paint43_linear_3592_56453)"/>
<path d="M5.19958 6.45471H4.37793V7.28175H5.19958V6.45471Z" fill="url(#paint44_linear_3592_56453)"/>
<path d="M4.37734 13.0441H3.55029V14.6927H4.37734V13.0441Z" fill="url(#paint45_linear_3592_56453)"/>
<path d="M4.37734 7.28076H3.55029V8.92944H4.37734V7.28076Z" fill="url(#paint46_linear_3592_56453)"/>
<path d="M3.54967 8.93091H2.72803V13.0445H3.54967V8.93091Z" fill="url(#paint47_linear_3592_56453)"/>
<defs>
<linearGradient id="paint0_linear_3592_56453" x1="19.9182" y1="18.9462" x2="20.9351" y2="19.028" gradientUnits="userSpaceOnUse">
<stop stop-color="#FF6B00"/>
<stop offset="1" stop-color="#F8E004"/>
</linearGradient>
<linearGradient id="paint1_linear_3592_56453" x1="18.0688" y1="1.80249" x2="21.1062" y2="2.04652" gradientUnits="userSpaceOnUse">
<stop stop-color="#FF6B00"/>
<stop offset="1" stop-color="#F8E004"/>
</linearGradient>
<linearGradient id="paint2_linear_3592_56453" x1="18.9693" y1="15.139" x2="19.9795" y2="15.2204" gradientUnits="userSpaceOnUse">
<stop stop-color="#FF6B00"/>
<stop offset="1" stop-color="#F8E004"/>
</linearGradient>
<linearGradient id="paint3_linear_3592_56453" x1="18.0187" y1="16.0894" x2="19.029" y2="16.1702" gradientUnits="userSpaceOnUse">
<stop stop-color="#FF6B00"/>
<stop offset="1" stop-color="#F8E004"/>
</linearGradient>
<linearGradient id="paint4_linear_3592_56453" x1="17.0633" y1="15.139" x2="18.08" y2="15.2214" gradientUnits="userSpaceOnUse">
<stop stop-color="#FF6B00"/>
<stop offset="1" stop-color="#F8E004"/>
</linearGradient>
<linearGradient id="paint5_linear_3592_56453" x1="14.2568" y1="17.9954" x2="17.2941" y2="18.2399" gradientUnits="userSpaceOnUse">
<stop stop-color="#FF6B00"/>
<stop offset="1" stop-color="#F8E004"/>
</linearGradient>
<linearGradient id="paint6_linear_3592_56453" x1="14.2066" y1="1.80249" x2="15.2169" y2="1.8833" gradientUnits="userSpaceOnUse">
<stop stop-color="#FF6B00"/>
<stop offset="1" stop-color="#F8E004"/>
</linearGradient>
<linearGradient id="paint7_linear_3592_56453" x1="11.3502" y1="0.852051" x2="12.3604" y2="0.93339" gradientUnits="userSpaceOnUse">
<stop stop-color="#FF6B00"/>
<stop offset="1" stop-color="#F8E004"/>
</linearGradient>
<linearGradient id="paint8_linear_3592_56453" x1="6.58799" y1="1.80249" x2="7.59829" y2="1.8833" gradientUnits="userSpaceOnUse">
<stop stop-color="#FF6B00"/>
<stop offset="1" stop-color="#F8E004"/>
</linearGradient>
<linearGradient id="paint9_linear_3592_56453" x1="5.6373" y1="17.9954" x2="6.64752" y2="18.0767" gradientUnits="userSpaceOnUse">
<stop stop-color="#FF6B00"/>
<stop offset="1" stop-color="#F8E004"/>
</linearGradient>
<linearGradient id="paint10_linear_3592_56453" x1="2.77468" y1="16.0897" x2="3.79154" y2="16.1716" gradientUnits="userSpaceOnUse">
<stop stop-color="#FF6B00"/>
<stop offset="1" stop-color="#F8E004"/>
</linearGradient>
<linearGradient id="paint11_linear_3592_56453" x1="1.82578" y1="19.9014" x2="2.83599" y2="19.9827" gradientUnits="userSpaceOnUse">
<stop stop-color="#FF6B00"/>
<stop offset="1" stop-color="#F8E004"/>
</linearGradient>
<linearGradient id="paint12_linear_3592_56453" x1="1.82578" y1="17.045" x2="2.83599" y2="17.1264" gradientUnits="userSpaceOnUse">
<stop stop-color="#FF6B00"/>
<stop offset="1" stop-color="#F8E004"/>
</linearGradient>
<linearGradient id="paint13_linear_3592_56453" x1="1.82578" y1="15.139" x2="2.83599" y2="15.2204" gradientUnits="userSpaceOnUse">
<stop stop-color="#FF6B00"/>
<stop offset="1" stop-color="#F8E004"/>
</linearGradient>
<linearGradient id="paint14_linear_3592_56453" x1="0.925262" y1="0.851929" x2="3.96255" y2="1.09648" gradientUnits="userSpaceOnUse">
<stop stop-color="#FF6B00"/>
<stop offset="1" stop-color="#F8E004"/>
</linearGradient>
<linearGradient id="paint15_linear_3592_56453" x1="0.875098" y1="16.0894" x2="1.8854" y2="16.1702" gradientUnits="userSpaceOnUse">
<stop stop-color="#FF6B00"/>
<stop offset="1" stop-color="#F8E004"/>
</linearGradient>
<linearGradient id="paint16_linear_3592_56453" x1="18.0187" y1="14.1837" x2="19.029" y2="14.2645" gradientUnits="userSpaceOnUse">
<stop stop-color="#FF6B00"/>
<stop offset="1" stop-color="#F8E004"/>
</linearGradient>
<linearGradient id="paint17_linear_3592_56453" x1="7.95075" y1="3.98425" x2="19.3685" y2="4.68714" gradientUnits="userSpaceOnUse">
<stop stop-color="#FF6B00"/>
<stop offset="1" stop-color="#F8E004"/>
</linearGradient>
<linearGradient id="paint18_linear_3592_56453" x1="14.2801" y1="8.93091" x2="15.165" y2="8.94523" gradientUnits="userSpaceOnUse">
<stop stop-color="#FF6B00"/>
<stop offset="1" stop-color="#F8E004"/>
</linearGradient>
<linearGradient id="paint19_linear_3592_56453" x1="13.4581" y1="13.0441" x2="14.3319" y2="13.114" gradientUnits="userSpaceOnUse">
<stop stop-color="#FF6B00"/>
<stop offset="1" stop-color="#F8E004"/>
</linearGradient>
<linearGradient id="paint20_linear_3592_56453" x1="13.4581" y1="8.10315" x2="14.3319" y2="8.17305" gradientUnits="userSpaceOnUse">
<stop stop-color="#FF6B00"/>
<stop offset="1" stop-color="#F8E004"/>
</linearGradient>
<linearGradient id="paint21_linear_3592_56453" x1="12.6359" y1="13.8702" x2="13.5096" y2="13.9406" gradientUnits="userSpaceOnUse">
<stop stop-color="#FF6B00"/>
<stop offset="1" stop-color="#F8E004"/>
</linearGradient>
<linearGradient id="paint22_linear_3592_56453" x1="12.6359" y1="7.28076" x2="13.5096" y2="7.35111" gradientUnits="userSpaceOnUse">
<stop stop-color="#FF6B00"/>
<stop offset="1" stop-color="#F8E004"/>
</linearGradient>
<linearGradient id="paint23_linear_3592_56453" x1="11.8099" y1="14.6921" x2="12.6893" y2="14.763" gradientUnits="userSpaceOnUse">
<stop stop-color="#FF6B00"/>
<stop offset="1" stop-color="#F8E004"/>
</linearGradient>
<linearGradient id="paint24_linear_3592_56453" x1="11.8099" y1="6.45471" x2="12.6893" y2="6.52552" gradientUnits="userSpaceOnUse">
<stop stop-color="#FF6B00"/>
<stop offset="1" stop-color="#F8E004"/>
</linearGradient>
<linearGradient id="paint25_linear_3592_56453" x1="7.77734" y1="15.519" x2="11.5682" y2="17.0492" gradientUnits="userSpaceOnUse">
<stop stop-color="#FF6B00"/>
<stop offset="1" stop-color="#F8E004"/>
</linearGradient>
<linearGradient id="paint26_linear_3592_56453" x1="10.9874" y1="11.3998" x2="11.8654" y2="11.4351" gradientUnits="userSpaceOnUse">
<stop stop-color="#FF6B00"/>
<stop offset="1" stop-color="#F8E004"/>
</linearGradient>
<linearGradient id="paint27_linear_3592_56453" x1="10.9874" y1="8.93091" x2="11.8612" y2="9.00126" gradientUnits="userSpaceOnUse">
<stop stop-color="#FF6B00"/>
<stop offset="1" stop-color="#F8E004"/>
</linearGradient>
<linearGradient id="paint28_linear_3592_56453" x1="7.77734" y1="5.63269" x2="11.5682" y2="7.16285" gradientUnits="userSpaceOnUse">
<stop stop-color="#FF6B00"/>
<stop offset="1" stop-color="#F8E004"/>
</linearGradient>
<linearGradient id="paint29_linear_3592_56453" x1="8.56061" y1="7.28076" x2="11.2027" y2="7.35167" gradientUnits="userSpaceOnUse">
<stop stop-color="#FF6B00"/>
<stop offset="1" stop-color="#F8E004"/>
</linearGradient>
<linearGradient id="paint30_linear_3592_56453" x1="7.69071" y1="12.2217" x2="8.57011" y2="12.293" gradientUnits="userSpaceOnUse">
<stop stop-color="#FF6B00"/>
<stop offset="1" stop-color="#F8E004"/>
</linearGradient>
<linearGradient id="paint31_linear_3592_56453" x1="7.69071" y1="8.93091" x2="8.57443" y2="8.96672" gradientUnits="userSpaceOnUse">
<stop stop-color="#FF6B00"/>
<stop offset="1" stop-color="#F8E004"/>
</linearGradient>
<linearGradient id="paint32_linear_3592_56453" x1="6.06815" y1="16.3407" x2="7.78247" y2="16.6168" gradientUnits="userSpaceOnUse">
<stop stop-color="#FF6B00"/>
<stop offset="1" stop-color="#F8E004"/>
</linearGradient>
<linearGradient id="paint33_linear_3592_56453" x1="6.86879" y1="14.6926" x2="7.74259" y2="14.7625" gradientUnits="userSpaceOnUse">
<stop stop-color="#FF6B00"/>
<stop offset="1" stop-color="#F8E004"/>
</linearGradient>
<linearGradient id="paint34_linear_3592_56453" x1="6.86879" y1="6.45471" x2="7.74259" y2="6.52461" gradientUnits="userSpaceOnUse">
<stop stop-color="#FF6B00"/>
<stop offset="1" stop-color="#F8E004"/>
</linearGradient>
<linearGradient id="paint35_linear_3592_56453" x1="6.06815" y1="4.81201" x2="7.78247" y2="5.08808" gradientUnits="userSpaceOnUse">
<stop stop-color="#FF6B00"/>
<stop offset="1" stop-color="#F8E004"/>
</linearGradient>
<linearGradient id="paint36_linear_3592_56453" x1="6.04652" y1="13.8702" x2="6.92025" y2="13.9406" gradientUnits="userSpaceOnUse">
<stop stop-color="#FF6B00"/>
<stop offset="1" stop-color="#F8E004"/>
</linearGradient>
<linearGradient id="paint37_linear_3592_56453" x1="6.04652" y1="7.28076" x2="6.92025" y2="7.35111" gradientUnits="userSpaceOnUse">
<stop stop-color="#FF6B00"/>
<stop offset="1" stop-color="#F8E004"/>
</linearGradient>
<linearGradient id="paint38_linear_3592_56453" x1="5.22049" y1="15.5203" x2="6.09989" y2="15.5915" gradientUnits="userSpaceOnUse">
<stop stop-color="#FF6B00"/>
<stop offset="1" stop-color="#F8E004"/>
</linearGradient>
<linearGradient id="paint39_linear_3592_56453" x1="5.22049" y1="13.0441" x2="6.09997" y2="13.1149" gradientUnits="userSpaceOnUse">
<stop stop-color="#FF6B00"/>
<stop offset="1" stop-color="#F8E004"/>
</linearGradient>
<linearGradient id="paint40_linear_3592_56453" x1="5.22001" y1="8.10315" x2="6.09948" y2="8.17396" gradientUnits="userSpaceOnUse">
<stop stop-color="#FF6B00"/>
<stop offset="1" stop-color="#F8E004"/>
</linearGradient>
<linearGradient id="paint41_linear_3592_56453" x1="5.22049" y1="5.63269" x2="6.09989" y2="5.70396" gradientUnits="userSpaceOnUse">
<stop stop-color="#FF6B00"/>
<stop offset="1" stop-color="#F8E004"/>
</linearGradient>
<linearGradient id="paint42_linear_3592_56453" x1="4.39955" y1="14.6921" x2="5.27335" y2="14.762" gradientUnits="userSpaceOnUse">
<stop stop-color="#FF6B00"/>
<stop offset="1" stop-color="#F8E004"/>
</linearGradient>
<linearGradient id="paint43_linear_3592_56453" x1="4.39955" y1="8.93091" x2="5.27871" y2="8.94505" gradientUnits="userSpaceOnUse">
<stop stop-color="#FF6B00"/>
<stop offset="1" stop-color="#F8E004"/>
</linearGradient>
<linearGradient id="paint44_linear_3592_56453" x1="4.39955" y1="6.45471" x2="5.27335" y2="6.52461" gradientUnits="userSpaceOnUse">
<stop stop-color="#FF6B00"/>
<stop offset="1" stop-color="#F8E004"/>
</linearGradient>
<linearGradient id="paint45_linear_3592_56453" x1="3.57206" y1="13.0441" x2="4.45579" y2="13.0798" gradientUnits="userSpaceOnUse">
<stop stop-color="#FF6B00"/>
<stop offset="1" stop-color="#F8E004"/>
</linearGradient>
<linearGradient id="paint46_linear_3592_56453" x1="3.57206" y1="7.28076" x2="4.45579" y2="7.31646" gradientUnits="userSpaceOnUse">
<stop stop-color="#FF6B00"/>
<stop offset="1" stop-color="#F8E004"/>
</linearGradient>
<linearGradient id="paint47_linear_3592_56453" x1="2.74965" y1="8.93091" x2="3.62881" y2="8.94505" gradientUnits="userSpaceOnUse">
<stop stop-color="#FF6B00"/>
<stop offset="1" stop-color="#F8E004"/>
</linearGradient>
</defs>
</svg>
