<svg width="35" height="30" viewBox="0 0 35 30" fill="none" xmlns="http://www.w3.org/2000/svg">
<path d="M14.7793 16.6541C13.9442 15.372 12.6039 14.6828 10.9036 14.6606C10.8984 14.6606 10.8932 14.6604 10.8883 14.6604H4.87228C4.86707 14.6604 4.86212 14.6604 4.85691 14.6606C3.15643 14.6828 1.8187 15.3729 0.988778 16.6565C0.332544 17.6712 0 19.0455 0 20.7415V21.9372C0 22.408 0.448947 22.7897 1.00284 22.7897H14.7757C15.3296 22.7897 15.7785 22.408 15.7785 21.9372V20.7415C15.7785 19.0473 15.4423 17.6721 14.7793 16.6541Z" fill="#FF6E73"/>
<path d="M14.7794 16.6541C13.9443 15.372 12.604 14.6828 10.9037 14.6606C10.8985 14.6606 10.8933 14.6604 10.8884 14.6604H7.88037V22.7897H14.7758C15.3297 22.7897 15.7786 22.408 15.7786 21.9372V20.7415C15.7786 19.0473 15.4424 17.6721 14.7794 16.6541Z" fill="#FF3364"/>
<path d="M11.5978 14.9098C11.4095 14.75 11.1546 14.6599 10.8885 14.6599H10.29V13.6368C10.29 13.166 9.8411 12.7844 9.2872 12.7844H6.49561C5.94197 12.7844 5.49277 13.1658 5.49277 13.6366L5.49251 14.6599H4.87247C4.60659 14.6599 4.35139 14.7498 4.16337 14.9098C3.9751 15.0696 3.86963 15.2865 3.86963 15.5128C3.86989 16.5343 4.26207 17.4987 4.97377 18.2283C5.73391 19.0074 6.76956 19.4364 7.88958 19.4364C10.133 19.4364 11.8908 17.713 11.8913 15.5128C11.8913 15.2865 11.7858 15.0696 11.5978 14.9098Z" fill="#FFD7B3"/>
<path d="M11.5977 14.9098C11.4095 14.75 11.1545 14.6599 10.8884 14.6599H10.2899V13.6368C10.2899 13.166 9.841 12.7844 9.28711 12.7844H7.88037V19.4362C7.8835 19.4362 7.88636 19.4364 7.88949 19.4364C10.1329 19.4364 11.8907 17.713 11.8912 15.5125C11.8912 15.2865 11.7857 15.0696 11.5977 14.9098Z" fill="#FFB387"/>
<path d="M33.1187 16.6541C32.2835 15.372 30.9432 14.6828 29.2427 14.6606C29.2378 14.6606 29.2326 14.6604 29.2274 14.6604H23.2116C23.2064 14.6604 23.2012 14.6604 23.1963 14.6606C21.4955 14.6828 20.1581 15.3729 19.3281 16.6565C18.6722 17.6712 18.3394 19.0455 18.3394 20.7415V21.9372C18.3394 22.408 18.7886 22.7897 19.3422 22.7897H33.115C33.6689 22.7897 34.1179 22.408 34.1179 21.9372V20.7415C34.1179 19.0473 33.7817 17.6721 33.1187 16.6541Z" fill="#FFC364"/>
<path d="M33.1183 16.6541C32.2831 15.372 30.9428 14.6828 29.2423 14.6606C29.2374 14.6606 29.2322 14.6604 29.227 14.6604H26.2192V22.7897H33.1146C33.6685 22.7897 34.1175 22.408 34.1175 21.9372V20.7415C34.1175 19.0473 33.7813 17.6721 33.1183 16.6541Z" fill="#FF9B32"/>
<path d="M29.9364 14.9098C29.7484 14.75 29.4932 14.6599 29.2271 14.6599H28.6289V13.6368C28.6289 13.166 28.18 12.7844 27.6261 12.7844H24.8345C24.2824 12.7844 23.8342 13.1636 23.8316 13.6329L23.8259 14.6599H23.2113C22.9452 14.6599 22.69 14.7498 22.502 14.9098C22.314 15.0696 22.2082 15.2865 22.2085 15.5128C22.2088 16.5343 22.6007 17.4987 23.3126 18.2283C24.0728 19.0074 25.1082 19.4364 26.2282 19.4364C28.4719 19.4364 30.2297 17.713 30.2302 15.5128C30.2302 15.2865 30.1244 15.0696 29.9364 14.9098Z" fill="#FFD7B3"/>
<path d="M29.9363 14.9098C29.7483 14.75 29.4931 14.6599 29.227 14.6599H28.6288V13.6368C28.6288 13.166 28.1799 12.7844 27.626 12.7844H26.2192V19.4362C26.2221 19.4362 26.2252 19.4364 26.2281 19.4364C28.4715 19.4364 30.2293 17.713 30.2298 15.5125C30.2301 15.2865 30.1243 15.0696 29.9363 14.9098Z" fill="#FFB387"/>
<path d="M26.8268 2.72595C26.7398 2.67106 24.6584 1.37329 21.1863 0.723409C19.1585 0.344018 17.0651 0.261233 14.9635 0.477934C12.9946 0.68091 11.0173 1.1484 9.06291 1.87155L9.27984 1.0364C9.3991 0.576655 9.05745 0.121784 8.51657 0.0201846C7.97596 -0.0811931 7.44056 0.209216 7.32103 0.668958L6.65699 3.22642C6.65542 3.23284 6.65464 3.23815 6.6536 3.24391C6.56688 3.61312 6.77651 4.00003 7.19265 4.17468L9.98685 5.3465C10.1296 5.40626 10.2806 5.4346 10.4298 5.4346C10.7996 5.4346 11.1553 5.26017 11.33 4.95914C11.5751 4.53703 11.3709 4.02593 10.8743 3.81764L9.91472 3.41523C13.5287 2.08205 17.1356 1.72988 20.6616 2.37135C23.7435 2.93203 25.6138 4.08415 25.6302 4.09433C25.8099 4.20788 26.0198 4.26255 26.2276 4.26255C26.5338 4.26255 26.8364 4.14369 27.0333 3.9188C27.3638 3.54074 27.2713 3.00684 26.8268 2.72595Z" fill="#48B1FF"/>
<path d="M26.8268 2.72585C26.7398 2.67095 24.6584 1.37318 21.1863 0.723305C19.834 0.470303 18.4525 0.349889 17.0591 0.361621V2.06114C18.2671 2.0514 19.4689 2.1541 20.6616 2.37125C23.7436 2.9317 25.6138 4.08382 25.6302 4.094C25.8099 4.20778 26.0198 4.26245 26.2276 4.26245C26.5338 4.26245 26.8364 4.14358 27.0333 3.91847C27.3638 3.54063 27.2713 3.00674 26.8268 2.72585Z" fill="#2386E8"/>
<path d="M26.8447 24.9306C26.8408 24.9142 26.7914 24.8881 26.6721 24.8383L23.8781 23.6663C23.381 23.458 22.78 23.6315 22.535 24.0536C22.2899 24.4757 22.4938 24.9868 22.9904 25.1951L23.95 25.5975C20.336 26.9307 16.7294 27.2829 13.2029 26.6414C10.1212 26.081 8.25093 24.9288 8.23452 24.9187C7.79 24.6378 7.16189 24.7161 6.83143 25.094C6.50097 25.4718 6.59342 26.0057 7.03768 26.2866C7.12465 26.3417 9.20611 27.6395 12.6784 28.2891C14.706 28.6687 16.7997 28.7513 18.9009 28.5348C20.8702 28.3316 22.8474 27.8644 24.8018 27.1412L24.5849 27.9764C24.4656 28.4359 24.8073 28.891 25.3482 28.9924C25.4211 29.0061 25.4937 29.0127 25.5653 29.0127C26.0255 29.0127 26.4403 28.7416 26.5437 28.3436L27.2078 25.7863C27.2911 25.4652 27.1492 25.1325 26.8447 24.9306Z" fill="#48B1FF"/>
<path d="M26.8445 24.9306C26.8406 24.9142 26.7912 24.8881 26.6719 24.8383L23.878 23.6663C23.3808 23.458 22.7798 23.6315 22.5348 24.0536C22.2897 24.4757 22.4936 24.9868 22.9902 25.1951L23.9498 25.5975C21.6436 26.4484 19.34 26.8991 17.0586 26.9473V28.6473C17.6711 28.6351 18.2856 28.5981 18.9007 28.5348C20.87 28.3316 22.8473 27.8644 24.8016 27.1412L24.5847 27.9764C24.4654 28.4361 24.8071 28.891 25.348 28.9924C25.4209 29.0061 25.4935 29.0127 25.5652 29.0127C26.0253 29.0127 26.4401 28.7416 26.5435 28.3438L27.2076 25.7863C27.2909 25.4652 27.149 25.1325 26.8445 24.9306Z" fill="#2386E8"/>
<path d="M8.17805 7.2002H7.58249C5.47551 7.2002 3.76123 8.65711 3.76123 10.4483V11.1588C3.76123 13.0894 5.6091 14.6599 7.8804 14.6599C10.1517 14.6599 11.9993 13.0894 11.9993 11.1588V10.4483C11.9996 8.65711 10.2853 7.2002 8.17805 7.2002Z" fill="#FFE4C2"/>
<path d="M8.17783 7.2002H7.92236V14.659C10.1741 14.6395 11.9991 13.0772 11.9991 11.1588V10.4483C11.9993 8.65711 10.2851 7.2002 8.17783 7.2002Z" fill="#FFD7B3"/>
<path d="M7.933 9.69369L11.9996 11.1588V10.4485C11.9996 8.65733 10.2853 7.2002 8.17805 7.2002H7.58249C5.47551 7.2002 3.76123 8.65733 3.76123 10.4485V11.3744L7.933 9.69369Z" fill="#FFC364"/>
<path d="M8.17809 7.2002H7.92236V9.69789L7.93278 9.69369L11.9993 11.1588V10.4485C11.9993 8.65733 10.2851 7.2002 8.17809 7.2002Z" fill="#FF9B32"/>
<path d="M26.5169 7.2002H25.9214C23.8144 7.2002 22.1001 8.65711 22.1001 10.4483V11.1588C22.1001 13.0894 23.948 14.6599 26.2193 14.6599C28.4903 14.6599 30.3382 13.0894 30.3382 11.1588V10.4483C30.3382 8.65711 28.6239 7.2002 26.5169 7.2002Z" fill="#FFE4C2"/>
<path d="M26.5172 7.2002H26.2617V14.659C28.5135 14.6395 30.3384 13.0772 30.3384 11.1588V10.4483C30.3384 8.65711 28.6242 7.2002 26.5172 7.2002Z" fill="#FFD7B3"/>
<path d="M26.2719 9.69369L30.3382 11.1588V10.4485C30.3382 8.65733 28.6242 7.2002 26.5169 7.2002H25.9214C23.8141 7.2002 22.1001 8.65733 22.1001 10.4485V11.3744L26.2719 9.69369Z" fill="#6D4432"/>
<path d="M26.5172 7.2002H26.2617V9.69789L26.2721 9.69369L30.3384 11.1588V10.4485C30.3384 8.65733 28.6244 7.2002 26.5172 7.2002Z" fill="#59311F"/>
</svg>
