<svg width="20" height="20" viewBox="0 0 20 20" fill="none" xmlns="http://www.w3.org/2000/svg">
<g clip-path="url(#clip0_3592_56036)">
<path d="M20.0002 13.3317H19.0439V14.2879H20.0002V13.3317Z" fill="url(#paint0_linear_3592_56036)"/>
<path d="M19.0437 8.57519H15.2375V4.76269H16.1875V3.8127H15.2375V2.85645H4.7625V3.8127H3.80625V4.76269H2.85625V5.7127H1.90625V6.66894H0.95V7.61894H0V10.4752H0.95V9.52519H5.7125V11.4314H6.6625V13.3314H7.61875V15.2377H8.56875V17.1439H9.525V9.52519H13.3313V11.4314H12.3812V13.3314H11.425V15.2377H10.475V17.1439H9.525V18.0939H8.56875V19.0502H9.525V20.0002H10.475V19.0502H11.425V18.0939H12.3812V17.1439H13.3313V16.1939H14.2875V15.2377H15.2375V14.2877H16.1875V13.3314H17.1437V12.3814H18.0938V11.4314H19.0437V10.4752H20V7.61894H19.0437V8.57519ZM13.3313 8.57519H6.6625V7.61894H5.7125V3.8127H9.525V4.76269H10.475V5.7127H11.425V6.66894H12.3812V7.61894H13.3313V8.57519Z" fill="url(#paint1_linear_3592_56036)"/>
<path d="M19.0437 16.193H18.0938V17.143H19.0437V16.193Z" fill="url(#paint2_linear_3592_56036)"/>
<path d="M19.0437 6.66833H18.0938V7.61833H19.0437V6.66833Z" fill="url(#paint3_linear_3592_56036)"/>
<path d="M18.0936 17.1436H17.1436V18.0936H18.0936V17.1436Z" fill="url(#paint4_linear_3592_56036)"/>
<path d="M18.0936 15.2377H17.1436V16.1939H18.0936V15.2377Z" fill="url(#paint5_linear_3592_56036)"/>
<path d="M18.0936 5.71289H17.1436V6.66914H18.0936V5.71289Z" fill="url(#paint6_linear_3592_56036)"/>
<path d="M17.1438 1.90681H16.1875V2.85681H17.1438V3.81306H18.0938V2.85681H19.0437V1.90681H18.0938V0.950562H17.1438V1.90681Z" fill="url(#paint7_linear_3592_56036)"/>
<path d="M17.1438 16.193H16.1875V17.143H17.1438V16.193Z" fill="url(#paint8_linear_3592_56036)"/>
<path d="M17.1438 4.76233H16.1875V5.71233H17.1438V4.76233Z" fill="url(#paint9_linear_3592_56036)"/>
<path d="M15.2376 19.0494H14.2876V19.9994H15.2376V19.0494Z" fill="url(#paint10_linear_3592_56036)"/>
<path d="M15.2376 0H14.2876V0.95H15.2376V0Z" fill="url(#paint11_linear_3592_56036)"/>
<path d="M9.5251 4.76233H8.56885V5.71233H9.5251V4.76233Z" fill="url(#paint12_linear_3592_56036)"/>
<path d="M9.5251 0.950562H8.56885V1.90681H9.5251V0.950562Z" fill="url(#paint13_linear_3592_56036)"/>
<path d="M8.56865 17.1436H7.61865V18.0936H8.56865V17.1436Z" fill="url(#paint14_linear_3592_56036)"/>
<path d="M8.56865 5.71289H7.61865V6.66914H8.56865V5.71289Z" fill="url(#paint15_linear_3592_56036)"/>
<path d="M7.61885 16.193H6.6626V17.143H7.61885V16.193Z" fill="url(#paint16_linear_3592_56036)"/>
<path d="M7.61885 6.66833H6.6626V7.61833H7.61885V6.66833Z" fill="url(#paint17_linear_3592_56036)"/>
<path d="M6.6624 18.0941H5.7124V19.0504H6.6624V18.0941Z" fill="url(#paint18_linear_3592_56036)"/>
<path d="M6.6624 15.2377H5.7124V16.1939H6.6624V15.2377Z" fill="url(#paint19_linear_3592_56036)"/>
<path d="M5.7127 14.2871H4.7627V15.2371H5.7127V14.2871Z" fill="url(#paint20_linear_3592_56036)"/>
<path d="M4.7624 13.3317H3.80615V14.2879H4.7624V13.3317Z" fill="url(#paint21_linear_3592_56036)"/>
<path d="M3.80645 12.3812H2.85645V13.3312H3.80645V12.3812Z" fill="url(#paint22_linear_3592_56036)"/>
<path d="M3.80645 1.90588H2.85645V2.85588H3.80645V1.90588Z" fill="url(#paint23_linear_3592_56036)"/>
<path d="M1.90645 15.2377V16.1939H0.950195V17.1439H1.90645V18.0939H2.85645V17.1439H3.80645V16.1939H2.85645V15.2377H1.90645Z" fill="url(#paint24_linear_3592_56036)"/>
<path d="M2.85625 11.4307H1.90625V12.3807H2.85625V11.4307Z" fill="url(#paint25_linear_3592_56036)"/>
<path d="M2.85625 2.85645H1.90625V3.8127H2.85625V2.85645Z" fill="url(#paint26_linear_3592_56036)"/>
<path d="M2.85625 0.950562H1.90625V1.90681H2.85625V0.950562Z" fill="url(#paint27_linear_3592_56036)"/>
<path d="M1.90645 10.4752H0.950195V11.4315H1.90645V10.4752Z" fill="url(#paint28_linear_3592_56036)"/>
<path d="M1.90645 1.90588H0.950195V2.85588H1.90645V1.90588Z" fill="url(#paint29_linear_3592_56036)"/>
<path d="M0.95 13.3317H0V14.2879H0.95V13.3317Z" fill="url(#paint30_linear_3592_56036)"/>
</g>
<defs>
<linearGradient id="paint0_linear_3592_56036" x1="19.0691" y1="13.3317" x2="20.086" y2="13.4135" gradientUnits="userSpaceOnUse">
<stop stop-color="#FF6B00"/>
<stop offset="1" stop-color="#F8E004"/>
</linearGradient>
<linearGradient id="paint1_linear_3592_56036" x1="0.526316" y1="2.85645" x2="21.7447" y2="4.84949" gradientUnits="userSpaceOnUse">
<stop stop-color="#FF6B00"/>
<stop offset="1" stop-color="#F8E004"/>
</linearGradient>
<linearGradient id="paint2_linear_3592_56036" x1="18.1187" y1="16.193" x2="19.129" y2="16.2743" gradientUnits="userSpaceOnUse">
<stop stop-color="#FF6B00"/>
<stop offset="1" stop-color="#F8E004"/>
</linearGradient>
<linearGradient id="paint3_linear_3592_56036" x1="18.1187" y1="6.66833" x2="19.129" y2="6.74967" gradientUnits="userSpaceOnUse">
<stop stop-color="#FF6B00"/>
<stop offset="1" stop-color="#F8E004"/>
</linearGradient>
<linearGradient id="paint4_linear_3592_56036" x1="17.1686" y1="17.1436" x2="18.1788" y2="17.2249" gradientUnits="userSpaceOnUse">
<stop stop-color="#FF6B00"/>
<stop offset="1" stop-color="#F8E004"/>
</linearGradient>
<linearGradient id="paint5_linear_3592_56036" x1="17.1686" y1="15.2377" x2="18.1789" y2="15.3185" gradientUnits="userSpaceOnUse">
<stop stop-color="#FF6B00"/>
<stop offset="1" stop-color="#F8E004"/>
</linearGradient>
<linearGradient id="paint6_linear_3592_56036" x1="17.1686" y1="5.71289" x2="18.1789" y2="5.7937" gradientUnits="userSpaceOnUse">
<stop stop-color="#FF6B00"/>
<stop offset="1" stop-color="#F8E004"/>
</linearGradient>
<linearGradient id="paint7_linear_3592_56036" x1="16.2627" y1="0.950562" x2="19.3" y2="1.19458" gradientUnits="userSpaceOnUse">
<stop stop-color="#FF6B00"/>
<stop offset="1" stop-color="#F8E004"/>
</linearGradient>
<linearGradient id="paint8_linear_3592_56036" x1="16.2127" y1="16.193" x2="17.2294" y2="16.2754" gradientUnits="userSpaceOnUse">
<stop stop-color="#FF6B00"/>
<stop offset="1" stop-color="#F8E004"/>
</linearGradient>
<linearGradient id="paint9_linear_3592_56036" x1="16.2127" y1="4.76233" x2="17.2294" y2="4.84473" gradientUnits="userSpaceOnUse">
<stop stop-color="#FF6B00"/>
<stop offset="1" stop-color="#F8E004"/>
</linearGradient>
<linearGradient id="paint10_linear_3592_56036" x1="14.3126" y1="19.0494" x2="15.3228" y2="19.1308" gradientUnits="userSpaceOnUse">
<stop stop-color="#FF6B00"/>
<stop offset="1" stop-color="#F8E004"/>
</linearGradient>
<linearGradient id="paint11_linear_3592_56036" x1="14.3126" y1="2.08662e-08" x2="15.3228" y2="0.0813381" gradientUnits="userSpaceOnUse">
<stop stop-color="#FF6B00"/>
<stop offset="1" stop-color="#F8E004"/>
</linearGradient>
<linearGradient id="paint12_linear_3592_56036" x1="8.59401" y1="4.76233" x2="9.61079" y2="4.84473" gradientUnits="userSpaceOnUse">
<stop stop-color="#FF6B00"/>
<stop offset="1" stop-color="#F8E004"/>
</linearGradient>
<linearGradient id="paint13_linear_3592_56036" x1="8.59401" y1="0.950562" x2="9.61087" y2="1.03243" gradientUnits="userSpaceOnUse">
<stop stop-color="#FF6B00"/>
<stop offset="1" stop-color="#F8E004"/>
</linearGradient>
<linearGradient id="paint14_linear_3592_56036" x1="7.64365" y1="17.1436" x2="8.65387" y2="17.2249" gradientUnits="userSpaceOnUse">
<stop stop-color="#FF6B00"/>
<stop offset="1" stop-color="#F8E004"/>
</linearGradient>
<linearGradient id="paint15_linear_3592_56036" x1="7.64365" y1="5.71289" x2="8.65395" y2="5.7937" gradientUnits="userSpaceOnUse">
<stop stop-color="#FF6B00"/>
<stop offset="1" stop-color="#F8E004"/>
</linearGradient>
<linearGradient id="paint16_linear_3592_56036" x1="6.68776" y1="16.193" x2="7.70454" y2="16.2754" gradientUnits="userSpaceOnUse">
<stop stop-color="#FF6B00"/>
<stop offset="1" stop-color="#F8E004"/>
</linearGradient>
<linearGradient id="paint17_linear_3592_56036" x1="6.68776" y1="6.66833" x2="7.70454" y2="6.75074" gradientUnits="userSpaceOnUse">
<stop stop-color="#FF6B00"/>
<stop offset="1" stop-color="#F8E004"/>
</linearGradient>
<linearGradient id="paint18_linear_3592_56036" x1="5.7374" y1="18.0941" x2="6.7477" y2="18.1749" gradientUnits="userSpaceOnUse">
<stop stop-color="#FF6B00"/>
<stop offset="1" stop-color="#F8E004"/>
</linearGradient>
<linearGradient id="paint19_linear_3592_56036" x1="5.7374" y1="15.2377" x2="6.7477" y2="15.3185" gradientUnits="userSpaceOnUse">
<stop stop-color="#FF6B00"/>
<stop offset="1" stop-color="#F8E004"/>
</linearGradient>
<linearGradient id="paint20_linear_3592_56036" x1="4.7877" y1="14.2871" x2="5.79791" y2="14.3684" gradientUnits="userSpaceOnUse">
<stop stop-color="#FF6B00"/>
<stop offset="1" stop-color="#F8E004"/>
</linearGradient>
<linearGradient id="paint21_linear_3592_56036" x1="3.83132" y1="13.3317" x2="4.84818" y2="13.4135" gradientUnits="userSpaceOnUse">
<stop stop-color="#FF6B00"/>
<stop offset="1" stop-color="#F8E004"/>
</linearGradient>
<linearGradient id="paint22_linear_3592_56036" x1="2.88145" y1="12.3812" x2="3.89166" y2="12.4626" gradientUnits="userSpaceOnUse">
<stop stop-color="#FF6B00"/>
<stop offset="1" stop-color="#F8E004"/>
</linearGradient>
<linearGradient id="paint23_linear_3592_56036" x1="2.88145" y1="1.90588" x2="3.89166" y2="1.98722" gradientUnits="userSpaceOnUse">
<stop stop-color="#FF6B00"/>
<stop offset="1" stop-color="#F8E004"/>
</linearGradient>
<linearGradient id="paint24_linear_3592_56036" x1="1.02536" y1="15.2377" x2="4.06265" y2="15.4822" gradientUnits="userSpaceOnUse">
<stop stop-color="#FF6B00"/>
<stop offset="1" stop-color="#F8E004"/>
</linearGradient>
<linearGradient id="paint25_linear_3592_56036" x1="1.93125" y1="11.4307" x2="2.94146" y2="11.512" gradientUnits="userSpaceOnUse">
<stop stop-color="#FF6B00"/>
<stop offset="1" stop-color="#F8E004"/>
</linearGradient>
<linearGradient id="paint26_linear_3592_56036" x1="1.93125" y1="2.85645" x2="2.94155" y2="2.93726" gradientUnits="userSpaceOnUse">
<stop stop-color="#FF6B00"/>
<stop offset="1" stop-color="#F8E004"/>
</linearGradient>
<linearGradient id="paint27_linear_3592_56036" x1="1.93125" y1="0.950562" x2="2.94155" y2="1.03137" gradientUnits="userSpaceOnUse">
<stop stop-color="#FF6B00"/>
<stop offset="1" stop-color="#F8E004"/>
</linearGradient>
<linearGradient id="paint28_linear_3592_56036" x1="0.97536" y1="10.4752" x2="1.99222" y2="10.5571" gradientUnits="userSpaceOnUse">
<stop stop-color="#FF6B00"/>
<stop offset="1" stop-color="#F8E004"/>
</linearGradient>
<linearGradient id="paint29_linear_3592_56036" x1="0.97536" y1="1.90588" x2="1.99213" y2="1.98829" gradientUnits="userSpaceOnUse">
<stop stop-color="#FF6B00"/>
<stop offset="1" stop-color="#F8E004"/>
</linearGradient>
<linearGradient id="paint30_linear_3592_56036" x1="0.025" y1="13.3317" x2="1.0353" y2="13.4125" gradientUnits="userSpaceOnUse">
<stop stop-color="#FF6B00"/>
<stop offset="1" stop-color="#F8E004"/>
</linearGradient>
<clipPath id="clip0_3592_56036">
<rect width="20" height="20" fill="white"/>
</clipPath>
</defs>
</svg>
