<svg width="117" height="36" viewBox="0 0 117 36" fill="none" xmlns="http://www.w3.org/2000/svg">
<rect width="36" height="36" rx="11.25" fill="url(#paint0_linear_3610_139033)"/>
<path d="M19.436 24.3848L24.407 19.4043L27.241 22.2446C27.807 22.811 28.125 23.579 28.125 24.3797C28.125 25.1805 27.807 25.9485 27.241 26.5149L26.5409 27.215C26.2609 27.4961 25.9282 27.7191 25.5618 27.8713C25.1954 28.0235 24.8025 28.1019 24.4058 28.1019C24.009 28.1019 23.6161 28.0235 23.2497 27.8713C22.8833 27.7191 22.5506 27.4961 22.2706 27.215L19.436 24.3848ZM27.234 9.45914L26.5307 8.75905C25.9644 8.19299 25.1964 7.875 24.3956 7.875C23.5948 7.875 22.8269 8.19299 22.2605 8.75905L17.9997 13.0293L13.7294 8.75905C13.1631 8.19299 12.3951 7.875 11.5943 7.875C10.7935 7.875 10.0256 8.19299 9.45917 8.75905L8.75908 9.45914C8.19302 10.0255 7.87503 10.7935 7.87503 11.5943C7.87503 12.395 8.19302 13.163 8.75908 13.7294L13.0294 17.9997L8.75908 22.27C8.19302 22.8363 7.87503 23.6043 7.87503 24.4051C7.87503 25.2059 8.19302 25.9738 8.75908 26.5402L9.45917 27.2403C10.0256 27.8064 10.7935 28.1244 11.5943 28.1244C12.3951 28.1244 13.1631 27.8064 13.7294 27.2403L27.241 13.7288C27.807 13.1624 28.125 12.3944 28.125 11.5936C28.125 10.7929 27.807 10.0249 27.241 9.4585L27.234 9.45914Z" fill="#1B1A21"/>
<path d="M62.136 18.036L67.131 26.757H61.731L58.626 20.709H58.545L55.44 26.757H50.04L55.035 18.036V17.901L50.364 9.666H55.683L58.545 15.606H58.626L61.488 9.666H66.807L62.136 17.901V18.036ZM81.6754 26.757H77.3554V9.666H85.5094C87.6514 9.666 89.2084 10.152 90.1804 11.124C91.1704 12.078 91.6654 13.491 91.6654 15.363C91.6654 16.767 91.3144 17.973 90.6124 18.981C89.9104 19.971 88.9834 20.592 87.8314 20.844L87.8044 20.925C88.2544 21.213 88.7494 21.69 89.2894 22.356C89.8294 23.022 90.3604 23.751 90.8824 24.543C91.4224 25.317 91.8994 26.046 92.3134 26.73V26.757H87.2914L84.3754 22.437C84.1234 22.059 83.9164 21.789 83.7544 21.627C83.6104 21.465 83.4304 21.366 83.2144 21.33C83.0164 21.294 82.6924 21.276 82.2424 21.276H81.6754V26.757ZM84.8074 13.176H81.6754V17.766H84.8074C85.7074 17.766 86.3284 17.586 86.6704 17.226C87.0304 16.866 87.2104 16.281 87.2104 15.471C87.2104 14.661 87.0304 14.076 86.6704 13.716C86.3284 13.356 85.7074 13.176 84.8074 13.176ZM94.7577 26.757V9.666H107.448V13.176H99.0777V16.416H106.341V19.926H99.0777V23.247H107.448V26.757H94.7577ZM113.922 26.757H109.602V9.666H113.922V26.757Z" fill="white"/>
<defs>
<linearGradient id="paint0_linear_3610_139033" x1="11.7818" y1="6.28612e-07" x2="41.9121" y2="5.92241" gradientUnits="userSpaceOnUse">
<stop stop-color="#EB1484"/>
<stop offset="0.9999" stop-color="#C91CC3"/>
<stop offset="1" stop-color="#C81CC5"/>
<stop offset="1" stop-color="#C81CC5"/>
</linearGradient>
</defs>
</svg>
