<svg width="32" height="28" viewBox="0 0 32 28" fill="none" xmlns="http://www.w3.org/2000/svg">
<path d="M16.874 18.253L16.5776 16.8191H14.4808L14.1843 18.253C13.8711 19.7678 12.9161 21.0796 11.5587 21.8597C11.2038 22.0637 11.3509 22.5978 11.762 22.5978H19.2963C19.7074 22.5978 19.8546 22.0637 19.4996 21.8597C18.1422 21.0796 17.1872 19.7678 16.874 18.253Z" fill="url(#paint0_linear_3600_10222)"/>
<path d="M19.4997 21.8597C18.1422 21.0796 17.1873 19.7678 16.874 18.253L16.5776 16.8191H15.595L15.2986 18.253C14.9854 19.7678 14.0304 21.0796 12.6729 21.8597C12.318 22.0637 12.4652 22.5978 12.8762 22.5978H19.2962C19.7074 22.5978 19.8546 22.0637 19.4997 21.8597Z" fill="url(#paint1_linear_3600_10222)"/>
<path d="M7.09888 14.5564C3.18456 14.5564 0 11.8495 0 8.52233C0 5.19516 3.18456 2.48828 7.09888 2.48828C11.0132 2.48828 14.1978 5.19516 14.1978 8.52233C14.1978 11.8495 11.0132 14.5564 7.09888 14.5564ZM7.09888 3.8976C4.09882 3.8976 1.65803 5.97228 1.65803 8.52233C1.65803 11.0724 4.09876 13.1471 7.09888 13.1471C10.099 13.1471 12.5397 11.0724 12.5397 8.52233C12.5397 5.97228 10.0989 3.8976 7.09888 3.8976Z" fill="url(#paint2_linear_3600_10222)"/>
<path d="M23.9597 14.5564C20.0454 14.5564 16.8608 11.8495 16.8608 8.52233C16.8608 5.19516 20.0454 2.48828 23.9597 2.48828C27.874 2.48828 31.0586 5.19516 31.0586 8.52233C31.0586 11.8495 27.874 14.5564 23.9597 14.5564ZM23.9597 3.8976C20.9597 3.8976 18.5189 5.97228 18.5189 8.52233C18.5189 11.0724 20.9597 13.1471 23.9597 13.1471C26.9598 13.1471 29.4006 11.0724 29.4006 8.52233C29.4006 5.97228 26.9598 3.8976 23.9597 3.8976Z" fill="url(#paint3_linear_3600_10222)"/>
<path d="M27.0975 1.38189V1.38472L27.0901 1.43121C27.0901 1.4326 27.0893 1.43404 27.0893 1.43543L26.22 7.2328C25.6203 11.2332 23.0248 14.7143 19.2487 16.5853C16.9185 17.7402 14.1395 17.7402 11.8093 16.5853C9.92126 15.6495 8.3281 14.312 7.13257 12.7075C5.93629 11.1036 5.13821 9.23269 4.83804 7.23285L3.96861 1.43543C3.96861 1.43404 3.96786 1.4326 3.96786 1.43121L3.96045 1.38472V1.38189C3.96045 0.618698 9.1395 0 15.529 0C21.9184 0 27.0975 0.618698 27.0975 1.38189Z" fill="url(#paint4_linear_3600_10222)"/>
<path d="M22.7144 0.298096L21.9261 5.55476C21.3265 9.55518 18.731 13.0363 14.9549 14.9072C13.5117 15.6225 11.8965 15.8943 10.3223 15.7236C10.7945 16.0387 11.2902 16.3273 11.8092 16.5845C14.1394 17.7395 16.9184 17.7395 19.2486 16.5845C23.0248 14.7136 25.6202 11.2325 26.2199 7.23204L27.0892 1.43466C27.0892 1.43327 27.09 1.43183 27.09 1.43044L27.0974 1.38395V1.38112C27.0974 0.942201 25.3847 0.551211 22.7144 0.298096Z" fill="url(#paint5_linear_3600_10222)"/>
<path d="M25.2297 1.38189V1.38472L25.2235 1.43121C25.2235 1.4326 25.2229 1.43404 25.2229 1.43543L24.4939 7.2328C23.9911 11.2332 21.8149 14.7143 18.6486 16.5853C16.6947 17.7402 14.3646 17.7402 12.4107 16.5853C10.8276 15.6495 9.49178 14.312 8.48929 12.7075C7.48617 11.1036 6.81707 9.23269 6.56538 7.23285L5.83643 1.43543C5.83643 1.43404 5.83581 1.4326 5.83581 1.43121L5.82959 1.38472V1.38189C5.82959 0.618698 10.1721 0 15.5296 0C20.8872 0 25.2297 0.618698 25.2297 1.38189Z" fill="url(#paint6_linear_3600_10222)"/>
<path d="M27.2976 1.38189V1.38472C27.2976 1.4002 27.2946 1.41573 27.29 1.43121C27.29 1.4326 27.2893 1.43404 27.2893 1.43543C27.0497 2.17465 21.8761 2.76447 15.5287 2.76447C9.18122 2.76447 4.00769 2.17465 3.76806 1.43543C3.76806 1.43404 3.7673 1.4326 3.7673 1.43121C3.76278 1.41573 3.75977 1.4002 3.75977 1.38472V1.38189C3.75977 0.618698 9.0285 0 15.5287 0C22.0289 0 27.2976 0.618698 27.2976 1.38189Z" fill="url(#paint7_radial_3600_10222)"/>
<path d="M25.724 2.07291C23.6893 1.65983 19.886 1.38184 15.5292 1.38184C11.1725 1.38184 7.36916 1.65983 5.33447 2.07291C7.36935 2.48621 11.1727 2.76404 15.5292 2.76404C19.8858 2.76404 23.6891 2.48621 25.724 2.07291Z" fill="url(#paint8_linear_3600_10222)"/>
<path d="M15.5289 2.42329C10.0836 2.42329 5.49607 1.91391 4.10606 1.2191C3.93789 1.13503 3.7375 1.26089 3.76005 1.43587L3.896 2.49039C3.93362 2.78199 4.13821 3.03238 4.43254 3.14554C6.62101 3.98661 10.7704 4.55433 15.5289 4.55433C20.2875 4.55433 24.4369 3.98661 26.6254 3.14554C26.9197 3.03244 27.1243 2.78204 27.1619 2.49039L27.2978 1.43587C27.3204 1.26089 27.12 1.13503 26.9518 1.2191C25.5618 1.91391 20.9743 2.42329 15.5289 2.42329Z" fill="url(#paint9_linear_3600_10222)"/>
<path d="M20.5261 27.2217H10.5333C10.1102 27.2217 9.76709 26.9301 9.76709 26.5704V22.7868C9.76709 22.4271 10.1102 22.1355 10.5333 22.1355H20.5261C20.9493 22.1355 21.2923 22.4271 21.2923 22.7868V26.5704C21.2923 26.9301 20.9493 27.2217 20.5261 27.2217Z" fill="url(#paint10_linear_3600_10222)"/>
<path d="M10.8817 22.6721C10.6137 22.6721 10.3965 22.8568 10.3965 23.0845V26.7416C10.3965 26.8834 10.4307 27.0183 10.4924 27.1409C10.6366 27.1933 10.7954 27.2224 10.9622 27.2224H20.0952C20.7558 27.2224 21.2913 26.7672 21.2913 26.2058V23.153C21.2913 23.0112 21.2571 22.8763 21.1954 22.7537C21.0512 22.7013 20.8924 22.6722 20.7256 22.6722H10.8817V22.6721Z" fill="url(#paint11_linear_3600_10222)"/>
<path d="M20.5195 22.1355H19.5195C20.1802 22.1355 20.7156 22.5907 20.7156 23.1522V26.205C20.7156 26.7665 20.1801 27.2217 19.5195 27.2217H20.0958C20.7564 27.2217 21.2919 26.7665 21.2919 26.205V22.792C21.2919 22.4294 20.9461 22.1355 20.5195 22.1355Z" fill="url(#paint12_linear_3600_10222)"/>
<path d="M21.2921 26.5716V24.5507L19.5427 23.0637C19.5001 23.0136 19.4314 22.9807 19.3532 22.9807H11.7057C11.5764 22.9807 11.4717 23.0697 11.4717 23.1796V25.4941C11.4717 25.5606 11.5104 25.6191 11.5693 25.6552L13.4137 27.2229H20.5258C20.949 27.2229 21.2921 26.9313 21.2921 26.5716Z" fill="url(#paint13_linear_3600_10222)"/>
<path d="M22.1881 27.2229H8.87029C8.64824 27.2229 8.46826 27.0699 8.46826 26.8812C8.46826 26.5485 8.78557 26.2788 9.17692 26.2788H21.8815C22.2729 26.2788 22.5902 26.5485 22.5902 26.8812C22.5902 27.0699 22.4102 27.2229 22.1881 27.2229Z" fill="#555A66"/>
<path d="M19.3532 25.693H11.7057C11.5764 25.693 11.4717 25.604 11.4717 25.4941V23.1796C11.4717 23.0697 11.5764 22.9807 11.7057 22.9807H19.3532C19.4824 22.9807 19.5872 23.0697 19.5872 23.1796V25.4941C19.5872 25.604 19.4824 25.693 19.3532 25.693Z" fill="url(#paint14_linear_3600_10222)"/>
<path d="M11.9939 23.5482C12.0895 23.5482 12.1671 23.4823 12.1671 23.4011C12.1671 23.3198 12.0895 23.2539 11.9939 23.2539C11.8983 23.2539 11.8208 23.3198 11.8208 23.4011C11.8208 23.4823 11.8983 23.5482 11.9939 23.5482Z" fill="url(#paint15_linear_3600_10222)"/>
<path d="M19.0642 23.5482C19.1599 23.5482 19.2374 23.4823 19.2374 23.4011C19.2374 23.3198 19.1599 23.2539 19.0642 23.2539C18.9686 23.2539 18.8911 23.3198 18.8911 23.4011C18.8911 23.4823 18.9686 23.5482 19.0642 23.5482Z" fill="url(#paint16_linear_3600_10222)"/>
<path d="M11.9939 25.4183C12.0895 25.4183 12.1671 25.3525 12.1671 25.2712C12.1671 25.1899 12.0895 25.124 11.9939 25.124C11.8983 25.124 11.8208 25.1899 11.8208 25.2712C11.8208 25.3525 11.8983 25.4183 11.9939 25.4183Z" fill="url(#paint17_linear_3600_10222)"/>
<path d="M19.0642 25.4183C19.1599 25.4183 19.2374 25.3525 19.2374 25.2712C19.2374 25.1899 19.1599 25.124 19.0642 25.124C18.9686 25.124 18.8911 25.1899 18.8911 25.2712C18.8911 25.3525 18.9686 25.4183 19.0642 25.4183Z" fill="url(#paint18_linear_3600_10222)"/>
<path d="M8.9488 4.48265C11.1971 3.69891 14.3056 5.7289 15.8919 9.01668C17.4781 12.3045 16.9414 15.6051 14.6931 16.3888C12.4448 17.1725 9.33625 15.1425 7.75 11.8548C6.16375 8.56698 6.70048 5.26639 8.9488 4.48265Z" fill="url(#paint19_linear_3600_10222)"/>
<defs>
<linearGradient id="paint0_linear_3600_10222" x1="12.6745" y1="19.5882" x2="17.2088" y2="20.0962" gradientUnits="userSpaceOnUse">
<stop stop-color="#FFDA45"/>
<stop offset="1" stop-color="#FFA425"/>
</linearGradient>
<linearGradient id="paint1_linear_3600_10222" x1="17.4757" y1="19.7694" x2="14.0818" y2="24.6791" gradientUnits="userSpaceOnUse">
<stop stop-color="#FFDA45" stop-opacity="0"/>
<stop offset="1" stop-color="#FCEE21"/>
</linearGradient>
<linearGradient id="paint2_linear_3600_10222" x1="0" y1="8.52233" x2="14.1978" y2="8.52233" gradientUnits="userSpaceOnUse">
<stop stop-color="#FFDA45"/>
<stop offset="1" stop-color="#FFA425"/>
</linearGradient>
<linearGradient id="paint3_linear_3600_10222" x1="16.8608" y1="8.52233" x2="31.0586" y2="8.52233" gradientUnits="userSpaceOnUse">
<stop stop-color="#FFDA45"/>
<stop offset="1" stop-color="#FFA425"/>
</linearGradient>
<linearGradient id="paint4_linear_3600_10222" x1="10.5129" y1="4.89796" x2="27.6982" y2="15.534" gradientUnits="userSpaceOnUse">
<stop stop-color="#FFDA45"/>
<stop offset="1" stop-color="#FFA425"/>
</linearGradient>
<linearGradient id="paint5_linear_3600_10222" x1="16.167" y1="8.6476" x2="31.7099" y2="10.401" gradientUnits="userSpaceOnUse">
<stop stop-color="#FFDA45" stop-opacity="0"/>
<stop offset="1" stop-color="#B53759"/>
</linearGradient>
<linearGradient id="paint6_linear_3600_10222" x1="17.9971" y1="8.55608" x2="5.13313" y2="1.08821" gradientUnits="userSpaceOnUse">
<stop stop-color="#FFDA45" stop-opacity="0"/>
<stop offset="1" stop-color="#FCEE21"/>
</linearGradient>
<radialGradient id="paint7_radial_3600_10222" cx="0" cy="0" r="1" gradientUnits="userSpaceOnUse" gradientTransform="translate(15.4597 2.82018) scale(13.1606 2.12543)">
<stop stop-color="#FFA425"/>
<stop offset="0.3664" stop-color="#FFA727"/>
<stop offset="0.5929" stop-color="#FFAF2C"/>
<stop offset="0.7815" stop-color="#FFBE34"/>
<stop offset="0.9483" stop-color="#FFD240"/>
<stop offset="1" stop-color="#FFDA45"/>
</radialGradient>
<linearGradient id="paint8_linear_3600_10222" x1="15.5292" y1="3.45299" x2="15.5292" y2="1.4587" gradientUnits="userSpaceOnUse">
<stop stop-color="#FFDA45"/>
<stop offset="1" stop-color="#FFA425"/>
</linearGradient>
<linearGradient id="paint9_linear_3600_10222" x1="15.558" y1="1.94119" x2="15.7178" y2="6.0021" gradientUnits="userSpaceOnUse">
<stop stop-color="#FFDA45"/>
<stop offset="1" stop-color="#FFA425"/>
</linearGradient>
<linearGradient id="paint10_linear_3600_10222" x1="13.8545" y1="21.8094" x2="16.7654" y2="28.7097" gradientUnits="userSpaceOnUse">
<stop stop-color="#7E8595"/>
<stop offset="1" stop-color="#555A66"/>
</linearGradient>
<linearGradient id="paint11_linear_3600_10222" x1="15.4707" y1="24.7091" x2="7.89814" y2="18.02" gradientUnits="userSpaceOnUse">
<stop stop-color="#BEC3D2" stop-opacity="0"/>
<stop offset="0.221" stop-color="#C5C9D7" stop-opacity="0.221"/>
<stop offset="0.5343" stop-color="#D7DAE3" stop-opacity="0.534"/>
<stop offset="0.9014" stop-color="#F6F6F8" stop-opacity="0.901"/>
<stop offset="1" stop-color="white"/>
</linearGradient>
<linearGradient id="paint12_linear_3600_10222" x1="19.2322" y1="22.9199" x2="20.9097" y2="26.8964" gradientUnits="userSpaceOnUse">
<stop stop-color="#7E8595"/>
<stop offset="1" stop-color="#555A66" stop-opacity="0"/>
</linearGradient>
<linearGradient id="paint13_linear_3600_10222" x1="17.8458" y1="28.6879" x2="16.1671" y2="22.8961" gradientUnits="userSpaceOnUse">
<stop stop-color="#555A66" stop-opacity="0"/>
<stop offset="1" stop-color="#555A66"/>
</linearGradient>
<linearGradient id="paint14_linear_3600_10222" x1="14.8456" y1="23.2548" x2="15.8743" y2="25.5078" gradientUnits="userSpaceOnUse">
<stop stop-color="#F9F7FC"/>
<stop offset="1" stop-color="#F0DDFC"/>
</linearGradient>
<linearGradient id="paint15_linear_3600_10222" x1="12.0304" y1="23.4589" x2="11.9755" y2="23.3386" gradientUnits="userSpaceOnUse">
<stop stop-color="#F9F7FC"/>
<stop offset="1" stop-color="#F0DDFC"/>
</linearGradient>
<linearGradient id="paint16_linear_3600_10222" x1="19.1008" y1="23.4589" x2="19.0458" y2="23.3386" gradientUnits="userSpaceOnUse">
<stop stop-color="#F9F7FC"/>
<stop offset="1" stop-color="#F0DDFC"/>
</linearGradient>
<linearGradient id="paint17_linear_3600_10222" x1="12.0304" y1="25.329" x2="11.9755" y2="25.2087" gradientUnits="userSpaceOnUse">
<stop stop-color="#F9F7FC"/>
<stop offset="1" stop-color="#F0DDFC"/>
</linearGradient>
<linearGradient id="paint18_linear_3600_10222" x1="19.1008" y1="25.329" x2="19.0458" y2="25.2087" gradientUnits="userSpaceOnUse">
<stop stop-color="#F9F7FC"/>
<stop offset="1" stop-color="#F0DDFC"/>
</linearGradient>
<linearGradient id="paint19_linear_3600_10222" x1="13.4278" y1="9.47318" x2="6.32234" y2="15.4498" gradientUnits="userSpaceOnUse">
<stop stop-color="#FFDA45" stop-opacity="0"/>
<stop offset="1" stop-color="white"/>
</linearGradient>
</defs>
</svg>
