<svg width="34" height="20" viewBox="0 0 34 20" fill="none" xmlns="http://www.w3.org/2000/svg">
<path d="M33.5774 3.41413C33.2409 3.21763 32.7914 3.21364 32.451 3.40209L26.7333 6.50824C26.5134 6.62934 26.3597 6.81779 26.3091 7.03192C26.2566 7.24523 26.3111 7.46741 26.459 7.64868C26.7877 8.05291 26.9609 8.52447 26.9609 9.0129C26.9609 10.3715 25.6204 11.4767 23.9726 11.4767C22.3248 11.4767 20.9844 10.3715 20.9844 9.0129C20.9844 8.21409 21.4629 7.461 22.2625 6.99743C22.712 6.73759 22.8209 6.22589 22.5057 5.85457L17.8151 0.32961C17.4455 -0.10987 16.5545 -0.10987 16.1848 0.32961L11.4942 5.85463C11.1791 6.22594 11.288 6.73764 11.7374 6.99748C12.537 7.46106 13.0156 8.21415 13.0156 9.01295C13.0156 10.3715 11.6751 11.4767 10.0273 11.4767C8.37952 11.4767 7.03904 10.3715 7.03904 9.01295C7.03904 8.52453 7.21217 8.05296 7.54101 7.64874C7.6889 7.46746 7.74335 7.24534 7.69082 7.03198C7.64022 6.81785 7.48656 6.62934 7.26669 6.50829L1.54898 3.40214C1.20658 3.21369 0.759073 3.21769 0.422527 3.41419C0.0859798 3.60986 -0.0696765 3.95556 0.0295345 4.28439L4.37212 19.3753C4.49663 19.7891 4.98299 20.0658 5.50242 19.9864C13.955 17.7214 21.2765 17.7214 29.0818 19.9864C29.1363 19.9944 29.1927 19.9976 29.2452 19.9976C29.6947 19.9976 30.0993 19.7458 30.2122 19.3753L33.9705 4.28439C34.0696 3.9555 33.914 3.60981 33.5774 3.41413Z" fill="url(#paint0_linear_3600_10459)"/>
<defs>
<linearGradient id="paint0_linear_3600_10459" x1="17" y1="18.0491" x2="17" y2="1.29097e-05" gradientUnits="userSpaceOnUse">
<stop stop-color="#8D76CE"/>
<stop offset="1" stop-color="#D5CAFF"/>
</linearGradient>
</defs>
</svg>
