<svg width="16" height="16" viewBox="0 0 16 16" fill="none" xmlns="http://www.w3.org/2000/svg">
<g id="icons/Line/Burn">
<g id="Fire">
<path id="Vector (Stroke)" fill-rule="evenodd" clip-rule="evenodd" d="M11.3146 8.59108C11.6784 8.64788 11.9272 8.98882 11.8705 9.35261C11.7423 10.1732 11.3568 10.932 10.7695 11.5193C10.1822 12.1066 9.42349 12.4921 8.60286 12.6202C8.23907 12.677 7.89813 12.4282 7.84133 12.0644C7.78453 11.7006 8.03339 11.3596 8.39717 11.3029C8.93861 11.2183 9.43919 10.9639 9.82669 10.5765C10.2142 10.189 10.4685 9.68837 10.5531 9.14693C10.6099 8.78315 10.9508 8.53429 11.3146 8.59108Z" fill="url(#paint0_linear_3585_27261)"/>
<path id="Vector (Stroke)_2" fill-rule="evenodd" clip-rule="evenodd" d="M8.72198 0.691672C8.98449 0.447005 9.39358 0.454032 9.64753 0.707571C11.4597 2.51678 13.9167 5.19489 13.9167 8.74989C13.9167 10.3191 13.2933 11.824 12.1838 12.9336C11.0742 14.0432 9.56924 14.6666 8.00004 14.6666C6.43084 14.6666 4.92592 14.0432 3.81633 12.9336C2.70674 11.824 2.08337 10.3191 2.08337 8.74989C2.08337 6.9995 2.96165 5.20123 3.94674 3.71621C4.14583 3.41607 4.54732 3.32833 4.85346 3.51805L4.85353 3.5181C4.8598 3.52198 4.86601 3.52597 4.87215 3.53007L6.72918 4.76808L8.57455 0.892791C8.6106 0.817098 8.66059 0.748883 8.72192 0.691723L8.72198 0.691672ZM9.36772 2.3284L7.60195 6.03652C7.51877 6.21118 7.36383 6.3411 7.17734 6.39255C6.99085 6.444 6.79121 6.4119 6.63024 6.30459L4.70014 5.01786C3.94253 6.27409 3.41671 7.57885 3.41671 8.74989C3.41671 9.96547 3.89959 11.1313 4.75913 11.9908C5.61868 12.8503 6.78447 13.3332 8.00004 13.3332C9.21562 13.3332 10.3814 12.8503 11.2409 11.9908C12.1005 11.1313 12.5834 9.96547 12.5834 8.74989C12.5834 6.15648 10.999 4.04627 9.36772 2.3284Z" fill="url(#paint1_linear_3585_27261)"/>
</g>
</g>
<defs>
<linearGradient id="paint0_linear_3585_27261" x1="9.15716" y1="8.58301" x2="12.5429" y2="9.2485" gradientUnits="userSpaceOnUse">
<stop stop-color="#EB1484"/>
<stop offset="0.9999" stop-color="#C91CC3"/>
<stop offset="1" stop-color="#C81CC5"/>
<stop offset="1" stop-color="#C81CC5"/>
</linearGradient>
<linearGradient id="paint1_linear_3585_27261" x1="5.9561" y1="0.512696" x2="15.9722" y2="2.15868" gradientUnits="userSpaceOnUse">
<stop stop-color="#EB1484"/>
<stop offset="0.9999" stop-color="#C91CC3"/>
<stop offset="1" stop-color="#C81CC5"/>
<stop offset="1" stop-color="#C81CC5"/>
</linearGradient>
</defs>
</svg>
